<?xml version="1.0" standalone="no"?>
<!DOCTYPE svg PUBLIC "-//W3C//DTD SVG 1.1//EN" "http://www.w3.org/Graphics/SVG/1.1/DTD/svg11.dtd" >
<svg xmlns="http://www.w3.org/2000/svg">
<metadata>Generated by IcoMoon</metadata>
<defs>
<font id="icomoon" horiz-adv-x="1024">
<font-face units-per-em="1024" ascent="960" descent="-64" />
<missing-glyph horiz-adv-x="1024" />
<glyph unicode="&#x20;" horiz-adv-x="512" d="" />
<glyph unicode="&#xe900;" glyph-name="menu" d="M56.889 789.333c-15.303 0-28.611 5.656-39.922 16.967s-16.967 24.618-16.967 39.922c0 15.969 5.656 29.276 16.967 39.922 11.311 11.311 24.619 16.967 39.922 16.967h910.222c15.969 0 29.275-5.656 39.925-16.967 11.31-10.646 16.964-23.953 16.964-39.922 0-15.304-5.655-28.611-16.964-39.922-10.65-11.311-23.956-16.967-39.925-16.967h-910.222zM56.889 391.111c-15.303 0-28.611 5.656-39.922 16.967s-16.967 24.618-16.967 39.922c0 15.969 5.656 29.276 16.967 39.922 11.311 11.312 24.619 16.967 39.922 16.967h910.222c15.969 0 29.275-5.655 39.925-16.967 11.31-10.646 16.964-23.953 16.964-39.922 0-15.304-5.655-28.611-16.964-39.922-10.65-11.311-23.956-16.967-39.925-16.967h-910.222zM56.889-7.111c-15.303 0-28.611 5.655-39.922 16.964-11.311 11.315-16.967 24.622-16.967 39.925 0 15.969 5.656 29.275 16.967 39.925 11.311 11.31 24.619 16.964 39.922 16.964h910.222c15.969 0 29.275-5.655 39.925-16.964 11.31-10.65 16.964-23.956 16.964-39.925 0-15.303-5.655-28.609-16.964-39.925-10.65-11.31-23.956-16.964-39.925-16.964h-910.222z" />
<glyph unicode="&#xe901;" glyph-name="arrow_left" d="M967.111 504.889c15.969 0 29.275-5.655 39.925-16.967 11.31-10.646 16.964-23.953 16.964-39.922 0-15.304-5.655-28.611-16.964-39.922-10.65-11.311-23.956-16.967-39.925-16.967h-910.222c-15.303 0-28.611 5.656-39.922 16.967s-16.967 24.618-16.967 39.922c0 15.969 5.656 29.276 16.967 39.922 11.311 11.312 24.619 16.967 39.922 16.967h910.222zM495.033 89.702c11.311-9.984 16.967-23.29 16.967-39.925 0-15.303-5.656-28.609-16.967-39.925-10.646-11.31-23.953-16.964-39.922-16.964s-29.276 5.655-39.922 16.964l-392.234 392.236c-11.977 12.642-17.965 27.946-17.965 45.91 0 18.631 5.988 33.934 17.965 45.91l392.234 392.234c10.646 11.311 23.953 16.967 39.922 16.967s29.276-5.656 39.922-16.967c11.311-10.646 16.967-23.953 16.967-39.922s-5.656-29.276-16.967-39.922l-392.234-392.234c-3.327-3.327-5.656 1.331-6.987 13.972-1.331 13.307-1.331 26.282 0 38.924 1.331 13.307 3.66 18.298 6.987 14.971l392.234-392.231z" />
<glyph unicode="&#xe902;" glyph-name="arrow_right" d="M56.889 391.111c-15.303 0-28.611 5.656-39.922 16.967s-16.967 24.618-16.967 39.922c0 15.969 5.656 29.276 16.967 39.922 11.311 11.312 24.619 16.967 39.922 16.967h910.222c15.969 0 29.275-5.655 39.925-16.967 11.31-10.646 16.964-23.953 16.964-39.922 0-15.304-5.655-28.611-16.964-39.922-10.65-11.311-23.956-16.967-39.925-16.967h-910.222zM608.814 9.853c-9.984-11.31-23.29-16.964-39.925-16.964-15.304 0-28.611 5.655-39.922 16.964-11.311 11.315-16.967 24.622-16.967 39.925 0 16.634 5.656 29.941 16.967 39.925l392.235 392.231c3.328 3.327 5.655-1.663 6.986-14.971 1.331-12.642 1.331-25.616 0-38.924-1.331-12.642-3.658-17.299-6.986-13.972l-392.235 392.234c-11.311 10.646-16.967 23.953-16.967 39.922s5.656 29.276 16.967 39.922c11.311 11.311 24.618 16.967 39.922 16.967 16.634 0 29.941-5.656 39.925-16.967l392.232-392.234c12.641-11.977 18.961-27.28 18.961-45.91 0-17.965-6.32-33.268-18.961-45.91l-392.232-392.236z" />
<glyph unicode="&#xe903;" glyph-name="arrow_up" d="M568.889-7.111c0-15.303-5.655-28.609-16.967-39.925-10.646-11.31-23.953-16.964-39.922-16.964-15.304 0-28.611 5.655-39.922 16.964-11.311 11.315-16.967 24.622-16.967 39.925v910.222c0 15.969 5.656 29.276 16.967 39.922 11.311 11.311 24.618 16.967 39.922 16.967 15.969 0 29.276-5.656 39.922-16.967 11.312-10.646 16.967-23.953 16.967-39.922v-910.222zM153.7 464.967c-9.98-11.311-23.287-16.967-39.922-16.967-15.303 0-28.611 5.656-39.922 16.967s-16.967 24.618-16.967 39.922c0 16.634 5.656 29.942 16.967 39.922l392.234 392.234c12.642 12.642 27.946 18.963 45.91 18.963 18.631 0 33.934-6.321 45.91-18.963l392.236-392.234c11.31-9.981 16.964-23.288 16.964-39.922 0-15.304-5.655-28.611-16.964-39.922-10.65-11.311-23.956-16.967-39.925-16.967s-29.275 5.656-39.925 16.967l-392.231 392.234c-3.327 3.327 1.331 5.656 13.972 6.987 13.307 1.331 26.282 1.331 38.924 0 13.307-1.331 18.298-3.66 14.971-6.987l-392.234-392.234z" />
<glyph unicode="&#xe904;" glyph-name="arrow_down" d="M568.889-7.111c0-15.303-5.655-28.609-16.967-39.925-10.646-11.31-23.953-16.964-39.922-16.964-15.304 0-28.611 5.655-39.922 16.964-11.311 11.315-16.967 24.622-16.967 39.925v910.222c0 15.969 5.656 29.276 16.967 39.922 11.311 11.311 24.618 16.967 39.922 16.967 15.969 0 29.276-5.656 39.922-16.967 11.312-10.646 16.967-23.953 16.967-39.922v-910.222zM870.298 431.033c10.65 11.311 23.956 16.967 39.925 16.967s29.275-5.656 39.925-16.967c11.31-10.646 16.964-23.953 16.964-39.922s-5.655-29.275-16.964-39.925l-392.236-392.232c-11.977-11.975-27.28-17.966-45.91-17.966-17.965 0-33.268 5.99-45.91 17.966l-392.234 392.232c-11.311 10.65-16.967 23.956-16.967 39.925s5.656 29.276 16.967 39.922c11.311 11.311 24.619 16.967 39.922 16.967 16.634 0 29.942-5.656 39.922-16.967l392.234-392.235c3.327-3.328-1.663-5.655-14.971-6.986-12.642-1.331-25.616-1.331-38.924 0-12.642 1.331-17.299 3.658-13.972 6.986l392.231 392.235z" />
<glyph unicode="&#xe905;" glyph-name="close" d="M19.088 851.088c-12.725 11.976-19.088 26.947-19.088 44.912s6.363 32.936 19.088 44.912c12.725 12.725 27.696 19.088 44.912 19.088 18.714 0 33.684-6.363 44.912-19.088l896.003-895.997c12.723-11.232 19.085-26.202 19.085-44.915 0-17.216-6.362-32.186-19.085-44.915-11.981-12.723-26.95-19.085-44.915-19.085s-32.934 6.362-44.915 19.085l-895.997 896.003zM915.085 940.912c11.981 12.725 26.95 19.088 44.915 19.088s32.934-6.363 44.915-19.088c12.723-11.977 19.085-26.947 19.085-44.912s-6.362-32.936-19.085-44.912l-896.003-896.003c-11.228-12.723-26.198-19.085-44.912-19.085-17.216 0-32.187 6.362-44.912 19.085-12.725 12.73-19.088 27.699-19.088 44.915 0 18.714 6.363 33.683 19.088 44.915l895.997 895.997z" />
<glyph unicode="&#xe906;" glyph-name="search" d="M455.111 163.556c65.206 0 123.756 14.638 175.656 43.913 51.9 29.941 92.484 70.861 121.765 122.761 29.275 51.9 43.913 110.12 43.913 174.66 0 65.206-14.638 123.758-43.913 175.657-29.281 51.899-69.865 92.486-121.765 121.762s-110.45 43.914-175.656 43.914c-64.54 0-122.76-14.638-174.659-43.914s-92.818-69.864-122.76-121.762c-29.276-51.899-43.914-110.451-43.914-175.657 0-64.54 14.638-122.761 43.914-174.66 29.942-51.9 70.861-92.82 122.76-122.761 51.899-29.275 110.119-43.913 174.659-43.913zM455.111 49.778c-82.505 0-158.69 20.292-228.553 60.882-69.864 40.585-125.089 95.812-165.676 165.678-40.588 69.86-60.881 146.046-60.881 228.551 0 83.171 20.294 159.355 60.881 228.553 40.587 69.864 95.813 125.089 165.676 165.676s146.048 60.881 228.553 60.881c83.171 0 159.357-20.294 228.551-60.881 69.865-40.587 125.093-95.813 165.678-165.676 40.59-69.864 60.882-146.048 60.882-228.553s-20.292-158.692-60.882-228.551c-40.585-69.865-95.812-125.093-165.678-165.678-69.86-40.59-146.046-60.882-228.551-60.882zM1007.036 32.814c11.31-9.984 16.964-23.29 16.964-39.925 0-15.303-5.655-28.609-16.964-39.925-10.65-11.31-23.956-16.964-39.925-16.964s-29.275 5.655-39.925 16.964l-227.556 227.556c-11.31 9.984-16.964 23.29-16.964 39.925 0 15.969 5.655 29.275 16.964 39.925 11.315 11.31 24.622 16.964 39.925 16.964 16.634 0 29.941-5.655 39.925-16.964l227.556-227.556z" />
<glyph unicode="&#xe907;" glyph-name="image" d="M113.778 163.556c0-35.931 9.981-63.875 29.942-83.837s47.906-29.941 83.836-29.941h568.889c35.931 0 63.875 9.978 83.837 29.941s29.941 47.906 29.941 83.837v568.889c0 35.93-9.978 63.875-29.941 83.836s-47.906 29.942-83.837 29.942h-568.889c-35.93 0-63.875-9.981-83.836-29.942s-29.942-47.906-29.942-83.836v-568.889zM0 732.444c0 41.918 9.981 80.177 29.942 114.776 20.626 35.265 48.239 62.877 82.838 82.838 35.264 19.961 73.523 29.941 114.776 29.941h568.889c41.916 0 80.179-9.98 114.773-29.941 35.265-19.961 62.879-47.574 82.842-82.838 19.962-34.599 29.941-72.858 29.941-114.776v-568.889c0-41.25-9.978-79.514-29.941-114.773-19.962-34.6-47.576-62.214-82.842-82.842-34.594-19.962-72.858-29.941-114.773-29.941h-568.889c-41.253 0-79.511 9.978-114.776 29.941-34.599 20.628-62.212 48.242-82.838 82.842-19.961 35.26-29.942 73.523-29.942 114.773v568.889zM314.386 533.832c-31.938 0-59.218 10.978-81.84 32.936-21.957 22.622-32.936 49.902-32.936 81.84 0 20.626 4.99 39.589 14.971 56.889 10.646 17.299 24.619 30.94 41.918 40.92 17.965 9.981 37.261 14.971 57.887 14.971s39.589-4.99 56.889-14.971c17.299-9.98 30.94-23.62 40.92-40.92s14.971-36.263 14.971-56.889c0-20.627-4.99-39.922-14.971-57.887-9.98-17.299-23.62-31.272-40.92-41.918-17.3-9.981-36.263-14.971-56.889-14.971zM1007.036 260.369c11.31-9.984 16.964-23.29 16.964-39.925 0-15.303-5.655-28.609-16.964-39.925-10.65-11.31-23.956-16.964-39.925-16.964s-29.275 5.655-39.925 16.964l-270.467 270.474c-1.331 1.331 2.657 2.329 11.975 2.994 9.313 0.666 18.631 0.666 27.944 0 9.984-0.665 13.972-1.663 11.975-2.994l-256.497-256.497c-14.638-14.643-32.603-21.959-53.895-21.959s-39.257 7.316-53.895 21.959l-142.721 142.717c-1.331 1.331 2.661 2.332 11.977 2.998s18.63 0.666 27.945 0c9.981-0.666 13.973-1.667 11.977-2.998l-156.694-156.695c-9.98-11.31-23.287-16.964-39.922-16.964-15.303 0-28.611 5.655-39.922 16.964-11.311 11.315-16.967 24.622-16.967 39.925 0 16.634 5.656 29.941 16.967 39.925l156.694 156.691c14.638 15.304 32.603 22.955 53.895 22.955s39.257-7.652 53.895-22.955l142.721-142.719c1.996-1.331-1.996-2.332-11.977-2.998-9.315-0.666-18.63-0.666-27.945 0s-13.307 1.667-11.977 2.998l256.497 256.497c14.638 15.304 32.603 22.955 53.897 22.955s39.259-7.652 53.897-22.955l270.473-270.469z" />
<glyph unicode="&#xe908;" glyph-name="check_box" d="M728.576 658.588c10.65 11.312 23.956 16.967 39.925 16.967s29.275-5.655 39.919-16.967c11.315-10.646 16.97-23.953 16.97-39.922s-5.655-29.276-16.97-39.922l-335.344-335.346c-11.977-11.975-27.28-17.966-45.91-17.966-17.965 0-33.268 5.99-45.91 17.966l-164.678 164.679c-11.311 10.646-16.967 23.953-16.967 39.922s5.656 29.276 16.967 39.922c11.311 11.312 24.619 16.967 39.922 16.967 16.634 0 29.942-5.655 39.922-16.967l164.678-164.679c3.327-3.328-1.663-5.655-14.97-6.986-12.642-1.331-25.617-1.331-38.925 0-12.642 1.331-17.299 3.658-13.972 6.986l335.344 335.346zM113.778 163.556c0-35.931 9.981-63.875 29.942-83.837s47.906-29.941 83.836-29.941h568.889c35.931 0 63.875 9.978 83.837 29.941s29.941 47.906 29.941 83.837v568.889c0 35.93-9.978 63.875-29.941 83.836s-47.906 29.942-83.837 29.942h-568.889c-35.93 0-63.875-9.981-83.836-29.942s-29.942-47.906-29.942-83.836v-568.889zM0 732.444c0 41.918 9.981 80.177 29.942 114.776 20.626 35.265 48.239 62.877 82.838 82.838 35.264 19.961 73.523 29.941 114.776 29.941h568.889c41.916 0 80.179-9.98 114.773-29.941 35.265-19.961 62.879-47.574 82.842-82.838 19.962-34.599 29.941-72.858 29.941-114.776v-568.889c0-41.25-9.978-79.514-29.941-114.773-19.962-34.6-47.576-62.214-82.842-82.842-34.594-19.962-72.858-29.941-114.773-29.941h-568.889c-41.253 0-79.511 9.978-114.776 29.941-34.599 20.628-62.212 48.242-82.838 82.842-19.961 35.26-29.942 73.523-29.942 114.773v568.889z" />
<glyph unicode="&#xe909;" glyph-name="check_box_blank" d="M113.778 163.556c0-35.931 9.981-63.875 29.942-83.837s47.906-29.941 83.836-29.941h568.889c35.931 0 63.875 9.978 83.837 29.941s29.941 47.906 29.941 83.837v568.889c0 35.93-9.978 63.875-29.941 83.836s-47.906 29.942-83.837 29.942h-568.889c-35.93 0-63.875-9.981-83.836-29.942s-29.942-47.906-29.942-83.836v-568.889zM0 732.444c0 41.918 9.981 80.177 29.942 114.776 20.626 35.265 48.239 62.877 82.838 82.838 35.264 19.961 73.523 29.941 114.776 29.941h568.889c41.916 0 80.179-9.98 114.773-29.941 35.265-19.961 62.879-47.574 82.842-82.838 19.962-34.599 29.941-72.858 29.941-114.776v-568.889c0-41.25-9.978-79.514-29.941-114.773-19.962-34.6-47.576-62.214-82.842-82.842-34.594-19.962-72.858-29.941-114.773-29.941h-568.889c-41.253 0-79.511 9.978-114.776 29.941-34.599 20.628-62.212 48.242-82.838 82.842-19.961 35.26-29.942 73.523-29.942 114.773v568.889z" />
<glyph unicode="&#xe90a;" glyph-name="indeterminate_check_box" d="M739.556 504.889c15.969 0 29.275-5.655 39.925-16.967 11.31-10.646 16.964-23.953 16.964-39.922 0-15.304-5.655-28.611-16.964-39.922-10.65-11.311-23.956-16.967-39.925-16.967h-455.111c-15.304 0-28.611 5.656-39.922 16.967s-16.967 24.618-16.967 39.922c0 15.969 5.656 29.276 16.967 39.922 11.311 11.312 24.618 16.967 39.922 16.967h455.111zM113.778 163.556c0-35.931 9.981-63.875 29.942-83.837s47.906-29.941 83.836-29.941h568.889c35.931 0 63.875 9.978 83.837 29.941s29.941 47.906 29.941 83.837v568.889c0 35.93-9.978 63.875-29.941 83.836s-47.906 29.942-83.837 29.942h-568.889c-35.93 0-63.875-9.981-83.836-29.942s-29.942-47.906-29.942-83.836v-568.889zM0 732.444c0 41.918 9.981 80.177 29.942 114.776 20.626 35.265 48.239 62.877 82.838 82.838 35.264 19.961 73.523 29.941 114.776 29.941h568.889c41.916 0 80.179-9.98 114.773-29.941 35.265-19.961 62.879-47.574 82.842-82.838 19.962-34.599 29.941-72.858 29.941-114.776v-568.889c0-41.25-9.978-79.514-29.941-114.773-19.962-34.6-47.576-62.214-82.842-82.842-34.594-19.962-72.858-29.941-114.773-29.941h-568.889c-41.253 0-79.511 9.978-114.776 29.941-34.599 20.628-62.212 48.242-82.838 82.842-19.961 35.26-29.942 73.523-29.942 114.773v568.889z" />
<glyph unicode="&#xe90b;" glyph-name="check_circle" d="M706.918 637.53c8.986 10.181 20.961 15.27 35.932 15.27 14.372 0 26.348-5.090 35.927-15.27 10.184-9.581 15.273-21.558 15.273-35.93s-5.089-26.349-15.273-35.93l-301.809-301.811c-10.779-10.778-24.552-16.169-41.319-16.169-16.168 0-29.941 5.391-41.319 16.169l-148.21 148.209c-10.18 8.986-15.27 20.961-15.27 35.932 0 14.372 5.090 26.349 15.27 35.93 10.18 10.181 22.157 15.27 35.93 15.27 14.971 0 26.948-5.090 35.93-15.27l148.21-148.211c2.994-2.995-1.497-5.089-13.473-6.287-11.378-1.198-23.055-1.198-35.032 0-11.378 1.198-15.569 3.292-12.575 6.287l301.81 301.811zM512 38.4c76.652 0 146.115 17.966 208.394 53.893 62.874 35.932 111.98 85.038 147.313 147.313 35.927 62.879 53.893 132.342 53.893 208.394 0 76.65-17.966 146.115-53.893 208.393-35.333 62.877-84.439 111.981-147.313 147.312-62.28 35.93-131.743 53.895-208.394 53.895-76.051 0-145.516-17.965-208.393-53.895-62.278-35.331-111.382-84.435-147.312-147.312-35.93-62.279-53.895-131.743-53.895-208.393 0-76.052 17.965-145.516 53.895-208.394 35.93-62.275 85.034-111.38 147.312-147.313 62.877-35.927 132.342-53.893 208.393-53.893zM512-64c-92.22 0-177.852 22.753-256.898 68.265-78.447 46.111-140.725 108.39-186.835 186.839-45.511 79.043-68.266 164.675-68.266 256.896 0 92.819 22.756 178.451 68.266 256.898 46.11 78.447 108.388 140.426 186.835 185.937 79.046 46.11 164.678 69.165 256.898 69.165 92.82 0 178.452-23.055 256.896-69.165 78.449-45.511 140.426-107.789 185.938-186.835 46.111-78.447 69.166-163.78 69.166-256 0-92.221-23.055-177.853-69.166-256.896-45.512-78.449-107.786-140.728-186.834-186.839-78.449-45.512-163.779-68.265-256-68.265z" />
<glyph unicode="&#xe90c;" glyph-name="radio_button_unchecked" d="M512 38.4c76.652 0 146.115 17.966 208.394 53.893 62.874 35.932 111.98 85.038 147.313 147.313 35.927 62.879 53.893 132.342 53.893 208.394 0 76.65-17.966 146.115-53.893 208.393-35.333 62.877-84.439 111.981-147.313 147.312-62.28 35.93-131.743 53.895-208.394 53.895-76.051 0-145.516-17.965-208.393-53.895-62.278-35.331-111.382-84.435-147.312-147.312-35.93-62.279-53.895-131.743-53.895-208.393 0-76.052 17.965-145.516 53.895-208.394 35.93-62.275 85.034-111.38 147.312-147.313 62.877-35.927 132.342-53.893 208.393-53.893zM512-64c-92.22 0-177.852 22.753-256.898 68.265-78.447 46.111-140.725 108.39-186.835 186.839-45.511 79.043-68.266 164.675-68.266 256.896 0 92.819 22.756 178.451 68.266 256.898 46.11 78.447 108.388 140.426 186.835 185.937 79.046 46.11 164.678 69.165 256.898 69.165 92.82 0 178.452-23.055 256.896-69.165 78.449-45.511 140.426-107.789 185.938-186.835 46.111-78.447 69.166-163.78 69.166-256 0-92.221-23.055-177.853-69.166-256.896-45.512-78.449-107.786-140.728-186.834-186.839-78.449-45.512-163.779-68.265-256-68.265z" />
<glyph unicode="&#xe90d;" glyph-name="radio_button_checked" d="M512 192c-46.11 0-88.926 11.377-128.449 34.135-38.924 23.352-70.063 54.492-93.417 93.414-22.756 38.927-34.134 81.741-34.134 128.451 0 46.709 11.378 89.525 34.134 128.449 23.354 39.523 54.493 70.662 93.417 93.417s81.74 34.134 128.449 34.134c46.71 0 89.523-11.378 128.451-34.134 39.521-22.755 70.661-53.895 93.414-93.417 22.758-38.924 34.135-81.74 34.135-128.449 0-46.111-11.377-88.924-34.135-128.451-22.753-38.922-53.893-70.062-93.414-93.414-38.927-22.758-81.741-34.135-128.451-34.135zM512 38.4c76.652 0 146.115 17.966 208.394 53.893 62.874 35.932 111.98 85.038 147.313 147.313 35.927 62.879 53.893 132.342 53.893 208.394 0 76.65-17.966 146.115-53.893 208.393-35.333 62.877-84.439 111.981-147.313 147.312-62.28 35.93-131.743 53.895-208.394 53.895-76.051 0-145.516-17.965-208.393-53.895-62.278-35.331-111.382-84.435-147.312-147.312-35.93-62.279-53.895-131.743-53.895-208.393 0-76.052 17.965-145.516 53.895-208.394 35.93-62.275 85.034-111.38 147.312-147.313 62.877-35.927 132.342-53.893 208.393-53.893zM512-64c-92.22 0-177.852 22.753-256.898 68.265-78.447 46.111-140.725 108.39-186.835 186.839-45.511 79.043-68.266 164.675-68.266 256.896 0 92.819 22.756 178.451 68.266 256.898 46.11 78.447 108.388 140.426 186.835 185.937 79.046 46.11 164.678 69.165 256.898 69.165 92.82 0 178.452-23.055 256.896-69.165 78.449-45.511 140.426-107.789 185.938-186.835 46.111-78.447 69.166-163.78 69.166-256 0-92.221-23.055-177.853-69.166-256.896-45.512-78.449-107.786-140.728-186.834-186.839-78.449-45.512-163.779-68.265-256-68.265z" />
<glyph unicode="&#xe90e;" glyph-name="favorite" d="M553.318 811.34c6.589-9.581 9.882-19.761 9.882-30.54 0-13.773-5.089-25.75-15.268-35.93-9.585-10.181-21.56-15.27-35.932-15.27-17.366 0-31.139 6.886-41.319 20.66-20.36 26.947-44.014 47.308-70.961 61.081s-57.787 20.66-92.519 20.66c-38.924 0-73.955-8.683-105.095-26.049s-55.691-41.619-73.656-72.758c-17.366-31.139-26.049-66.47-26.049-105.993 0-115.574 33.534-216.177 100.603-301.809 67.069-85.038 145.217-155.699 234.442-211.988 28.744-17.966 53.595-26.947 74.554-26.947 21.56 0 46.408 8.98 74.552 26.947 89.226 56.289 167.373 126.95 234.445 211.988 67.067 85.632 100.603 186.234 100.603 301.809 0 39.523-8.684 74.854-26.051 105.993s-41.615 55.392-72.755 72.758c-31.14 17.366-66.473 26.049-105.994 26.049-34.734 0-65.572-6.886-92.518-20.66s-50.601-34.134-70.963-61.081c-10.179-13.773-23.951-20.66-41.318-20.66-13.773 0-25.75 5.090-35.93 15.27s-15.27 22.156-15.27 35.93c0 10.779 3.294 20.959 9.881 30.54 28.744 37.726 64.672 67.668 107.787 89.825 43.121 22.157 89.226 33.235 138.332 33.235 55.69 0 106.89-13.773 153.6-41.319 47.309-27.546 84.736-64.973 112.282-112.281 27.546-46.709 41.318-97.909 41.318-153.6 0-137.132-39.224-255.703-117.668-355.707-77.85-100.004-165.878-181.443-264.084-244.321-43.116-27.546-86.533-41.318-130.248-41.318s-87.13 13.773-130.246 41.318c-98.208 62.879-186.535 144.317-264.983 244.321-77.848 100.004-116.772 218.575-116.772 355.707 0 55.691 13.773 106.891 41.319 153.6 27.546 47.308 64.973 84.734 112.281 112.281s98.508 41.319 153.6 41.319c49.104 0 95.214-11.078 138.33-33.235s79.045-52.098 107.789-89.825z" />
<glyph unicode="&#xe90f;" glyph-name="star" d="M424.87 642.021c-9.582-19.162-22.756-34.732-39.523-46.709-16.168-11.976-35.032-19.163-56.59-21.558l-218.274-31.438c5.39 0.599 8.684 3.293 9.881 8.084 1.796 4.791 0.898 8.983-2.695 12.575l158.989-155.398c15.569-15.57 26.349-32.635 32.337-51.2 5.988-17.966 7.485-38.026 4.491-60.18l-37.727-219.172c0 5.386-2.096 9.283-6.287 11.679-3.593 2.99-7.785 3.292-12.576 0.896l195.818 104.197c20.36 10.778 40.121 16.169 59.284 16.169s38.922-5.391 59.284-16.169l195.82-104.197c-4.193 2.396-8.387 2.094-12.58-0.896-4.188-2.396-5.985-6.292-5.386-11.679l-37.729 219.172c-3.589 21.555-2.693 41.62 2.698 60.18 5.985 18.565 17.362 35.63 34.13 51.2l158.095 155.398c-3.594-3.593-4.792-7.784-3.594-12.575 1.797-4.791 5.386-7.485 10.778-8.084l-218.276 31.438c-21.555 2.395-40.719 9.582-57.487 21.558-16.164 11.977-28.744 27.547-37.724 46.709l-98.807 199.411c2.396-4.791 5.988-7.186 10.779-7.186 5.391 0 8.98 2.395 10.778 7.186l-97.907-199.411zM431.158 887.242c10.779 20.959 26.948 35.331 48.505 43.116s43.114 7.785 64.675 0c21.555-7.785 37.724-22.157 48.502-43.116l99.707-200.309c1.797-4.192 3.891-7.186 6.287-8.983s5.99-2.695 10.778-2.695l218.276-31.439c23.352-3.593 41.917-14.372 55.69-32.337 14.372-17.965 21.258-38.624 20.659-61.979 0-22.756-8.684-42.817-26.045-60.183l-159.887-155.398c-3.594-3.589-5.693-6.584-6.292-8.98-0.594-2.396-0.297-6.589 0.901-12.575l37.724-217.375c3.594-23.956-1.198-45.512-14.372-64.676s-30.838-32.036-52.997-38.625c-21.555-5.985-43.116-3.292-64.671 8.084l-195.82 102.4c-4.188 2.995-7.782 4.49-10.778 4.49-2.395 0-5.988-1.495-10.779-4.49l-195.817-102.4c-20.959-11.377-42.517-14.070-64.674-8.084-22.156 6.589-39.822 19.461-52.996 38.625s-17.666 40.719-13.474 64.676l37.726 217.375c0.599 5.386 0.3 9.283-0.898 11.674-0.599 2.995-2.695 6.292-6.288 9.882l-158.989 155.398c-16.767 17.366-25.45 37.427-26.049 60.183-0.599 23.354 5.988 44.014 19.761 61.979 14.372 17.965 33.235 28.744 56.589 32.337l218.274 31.439c4.791 0 8.383 0.898 10.779 2.695 2.994 1.797 5.389 4.791 7.186 8.983l98.807 200.309z" />
<glyph unicode="&#xe910;" glyph-name="star_half" d="M424.87 642.021c-9.582-19.162-22.756-34.732-39.523-46.709-16.168-11.976-35.032-19.163-56.59-21.558l-218.274-31.438c5.39 0.599 8.684 3.293 9.881 8.084 1.796 4.791 0.898 8.983-2.695 12.575l158.989-155.398c15.569-15.57 26.349-32.635 32.337-51.2 5.988-17.966 7.485-38.026 4.491-60.18l-37.727-219.172c0 5.386-2.096 9.283-6.287 11.679-3.593 2.99-7.785 3.292-12.576 0.896l195.818 104.197c20.36 10.778 40.121 16.169 59.284 16.169s38.922-5.391 59.284-16.169l195.82-104.197c-4.193 2.396-8.387 2.094-12.58-0.896-4.188-2.396-5.985-6.292-5.386-11.679l-37.729 219.172c-3.589 21.555-2.693 41.62 2.698 60.18 5.985 18.565 17.362 35.63 34.13 51.2l158.095 155.398c-3.594-3.593-4.792-7.784-3.594-12.575 1.797-4.791 5.386-7.485 10.778-8.084l-218.276 31.438c-21.555 2.395-40.719 9.582-57.487 21.558-16.164 11.977-28.744 27.547-37.724 46.709l-98.807 199.411c2.396-4.791 5.988-7.186 10.779-7.186 5.391 0 8.98 2.395 10.778 7.186l-97.907-199.411zM431.158 887.242c10.779 20.959 26.948 35.331 48.505 43.116s43.114 7.785 64.675 0c21.555-7.785 37.724-22.157 48.502-43.116l99.707-200.309c1.797-4.192 3.891-7.186 6.287-8.983s5.99-2.695 10.778-2.695l218.276-31.439c23.352-3.593 41.917-14.372 55.69-32.337 14.372-17.965 21.258-38.624 20.659-61.979 0-22.756-8.684-42.817-26.045-60.183l-159.887-155.398c-3.594-3.589-5.693-6.584-6.292-8.98-0.594-2.396-0.297-6.589 0.901-12.575l37.724-217.375c3.594-23.956-1.198-45.512-14.372-64.676s-30.838-32.036-52.997-38.625c-21.555-5.985-43.116-3.292-64.671 8.084l-195.82 102.4c-4.188 2.995-7.782 4.49-10.778 4.49-2.395 0-5.988-1.495-10.779-4.49l-195.817-102.4c-20.959-11.377-42.517-14.070-64.674-8.084-22.156 6.589-39.822 19.461-52.996 38.625s-17.666 40.719-13.474 64.676l37.726 217.375c0.599 5.386 0.3 9.283-0.898 11.674-0.599 2.995-2.695 6.292-6.288 9.882l-158.989 155.398c-16.767 17.366-25.45 37.427-26.049 60.183-0.599 23.354 5.988 44.014 19.761 61.979 14.372 17.965 33.235 28.744 56.589 32.337l218.274 31.439c4.791 0 8.383 0.898 10.779 2.695 2.994 1.797 5.389 4.791 7.186 8.983l98.807 200.309zM81.74 526.148c-7.186 7.186-11.078 15.569-11.677 25.15 0 10.18 2.994 19.163 8.983 26.948 5.988 8.383 14.072 13.174 24.252 14.372l218.274 31.439c26.349 3.593 45.212 17.066 56.589 40.421l98.807 199.411c7.186 13.773 18.863 20.66 35.032 20.66v-726.683c-11.977 0-23.654-3.292-35.032-9.876l-195.817-103.301c-8.983-4.792-18.265-5.688-27.846-2.693s-17.366 8.381-23.354 16.169c-5.389 8.381-7.186 17.664-5.39 27.843l37.727 218.276c2.395 13.773 1.796 25.748-1.797 35.927-2.994 10.184-9.582 20.362-19.762 30.541l-158.989 155.398z" />
<glyph unicode="&#xe911;" glyph-name="arrow_drop_down" d="M60.632 527.72c-29.942 28.444-44.912 62.129-44.912 101.052 1.497 38.924 14.971 71.86 40.421 98.807 26.947 26.947 61.38 40.421 103.298 40.421h705.124c41.917 0 76.351-13.474 103.297-40.421 26.948-26.947 40.421-59.883 40.421-98.807s-14.971-72.608-44.911-101.052l-348.070-348.070c-26.948-26.948-61.38-40.421-103.299-40.421-40.421 0-74.854 13.473-103.299 40.421l-348.070 348.070z" />
<glyph unicode="&#xe912;" glyph-name="arrow_drop_up" d="M159.438 128c-41.918 0-76.35 13.473-103.298 40.421-25.45 26.948-38.924 59.884-40.421 98.807 0 38.924 14.971 72.608 44.912 101.052l348.070 348.071c28.444 28.445 62.877 42.667 103.299 42.667 41.919 0 76.351-14.222 103.299-42.667l348.070-348.071c29.94-28.444 44.911-62.129 44.911-101.052s-13.473-71.859-40.421-98.807c-26.947-26.948-61.38-40.421-103.297-40.421h-705.124z" />
<glyph unicode="&#xe913;" glyph-name="done" d="M16.967 464.967c-11.311 10.646-16.967 23.953-16.967 39.922s5.656 29.276 16.967 39.922c11.311 11.311 24.619 16.967 39.922 16.967 16.634 0 29.942-5.656 39.922-16.967l335.345-335.346c3.327-3.328-1.663-5.655-14.971-6.986-12.642-1.331-25.616-1.331-38.924 0-12.642 1.331-17.299 3.658-13.972 6.986l562.898 562.902c10.65 11.311 23.956 16.967 39.925 16.967s29.275-5.656 39.925-16.967c11.31-10.646 16.964-23.953 16.964-39.922s-5.655-29.276-16.964-39.922l-562.903-562.901c-11.977-11.975-27.28-17.966-45.91-17.966-17.965 0-33.269 5.99-45.91 17.966l-335.345 335.346z" />
<glyph unicode="&#xe914;" glyph-name="more_vert" d="M512 960c20.626 0 39.59-5.323 56.889-15.969 17.299-9.98 30.94-23.62 40.92-40.92 10.646-17.299 15.969-36.263 15.969-56.889 0-19.961-5.323-38.924-15.969-56.889-9.981-17.299-23.621-31.272-40.92-41.918-17.299-9.981-36.263-14.971-56.889-14.971-19.961 0-38.924 4.99-56.889 14.971-17.3 10.646-31.272 24.619-41.918 41.918-9.981 17.965-14.971 36.928-14.971 56.889 0 20.626 4.99 39.59 14.971 56.889 10.646 17.3 24.619 30.94 41.918 40.92 17.965 10.646 36.928 15.969 56.889 15.969zM512 561.778c20.626 0 39.59-5.323 56.889-15.969 17.299-9.981 30.94-23.621 40.92-40.92 10.646-17.299 15.969-36.263 15.969-56.889 0-19.961-5.323-38.924-15.969-56.889-9.981-17.3-23.621-31.272-40.92-41.916-17.299-9.984-36.263-14.973-56.889-14.973-19.961 0-38.924 4.989-56.889 14.973-17.3 10.644-31.272 24.616-41.918 41.916-9.981 17.965-14.971 36.928-14.971 56.889 0 20.626 4.99 39.59 14.971 56.889 10.646 17.299 24.619 30.94 41.918 40.92 17.965 10.646 36.928 15.969 56.889 15.969zM512 163.556c20.626 0 39.59-5.325 56.889-15.969 17.299-9.978 30.94-23.62 40.92-40.92 10.646-17.3 15.969-36.261 15.969-56.889 0-19.962-5.323-38.923-15.969-56.889-9.981-17.3-23.621-31.272-40.92-41.916-17.299-9.984-36.263-14.973-56.889-14.973-19.961 0-38.924 4.989-56.889 14.973-17.3 10.644-31.272 24.616-41.918 41.916-9.981 17.966-14.971 36.927-14.971 56.889 0 20.628 4.99 39.589 14.971 56.889 10.646 17.3 24.619 30.942 41.918 40.92 17.965 10.644 36.928 15.969 56.889 15.969z" />
<glyph unicode="&#xe915;" glyph-name="more_horiz" d="M0 448c0 20.626 4.99 39.59 14.971 56.889 10.646 17.3 24.619 30.94 41.918 40.92 17.965 10.646 36.928 15.969 56.889 15.969 20.626 0 39.59-5.323 56.889-15.969 17.299-9.981 30.94-23.621 40.92-40.92 10.646-17.299 15.969-36.263 15.969-56.889 0-19.961-5.323-38.924-15.969-56.889-9.981-17.299-23.621-31.272-40.92-41.918-17.299-9.981-36.263-14.971-56.889-14.971-19.961 0-38.924 4.99-56.889 14.971-17.3 10.646-31.272 24.619-41.918 41.918-9.981 17.965-14.971 36.928-14.971 56.889zM398.222 448c0 20.626 4.99 39.59 14.971 56.889 10.646 17.3 24.619 30.94 41.918 40.92 17.965 10.646 36.928 15.969 56.889 15.969 20.626 0 39.59-5.323 56.889-15.969 17.3-9.981 30.942-23.621 40.92-40.92 10.644-17.299 15.969-36.263 15.969-56.889 0-19.961-5.325-38.924-15.969-56.889-9.978-17.299-23.62-31.272-40.92-41.918-17.299-9.981-36.263-14.971-56.889-14.971-19.961 0-38.924 4.99-56.889 14.971-17.299 10.646-31.272 24.619-41.918 41.918-9.981 17.965-14.971 36.928-14.971 56.889zM796.444 448c0 20.626 4.989 39.59 14.973 56.889 10.644 17.3 24.616 30.94 41.916 40.92 17.966 10.646 36.927 15.969 56.889 15.969 20.628 0 39.589-5.323 56.889-15.969 17.3-9.981 30.942-23.621 40.92-40.92 10.644-17.299 15.969-36.263 15.969-56.889 0-19.961-5.325-38.924-15.969-56.889-9.978-17.299-23.62-31.272-40.92-41.918-17.3-9.981-36.261-14.971-56.889-14.971-19.962 0-38.923 4.99-56.889 14.971-17.3 10.646-31.272 24.619-41.916 41.918-9.984 17.965-14.973 36.928-14.973 56.889z" />
<glyph unicode="&#xe916;" glyph-name="add" d="M967.111 504.889c15.969 0 29.275-5.655 39.925-16.967 11.31-10.646 16.964-23.953 16.964-39.922 0-15.304-5.655-28.611-16.964-39.922-10.65-11.311-23.956-16.967-39.925-16.967h-512v512c0 15.969 5.656 29.276 16.967 39.922 11.311 11.311 24.618 16.967 39.922 16.967 15.969 0 29.276-5.656 39.922-16.967 11.312-10.646 16.967-23.953 16.967-39.922v-398.222h398.222zM56.889 391.111c-15.303 0-28.611 5.656-39.922 16.967s-16.967 24.618-16.967 39.922c0 15.969 5.656 29.276 16.967 39.922 11.311 11.312 24.619 16.967 39.922 16.967h512v-512c0-15.303-5.655-28.609-16.967-39.925-10.646-11.31-23.953-16.964-39.922-16.964-15.304 0-28.611 5.655-39.922 16.964-11.311 11.315-16.967 24.622-16.967 39.925v398.222h-398.222z" />
<glyph unicode="&#xe917;" glyph-name="remove" d="M56.889 391.111c-15.303 0-28.611 5.656-39.922 16.967s-16.967 24.618-16.967 39.922c0 15.969 5.656 29.276 16.967 39.922 11.311 11.311 24.619 16.967 39.922 16.967h910.222c15.969 0 29.275-5.656 39.925-16.967 11.31-10.646 16.964-23.953 16.964-39.922 0-15.304-5.655-28.611-16.964-39.922-10.65-11.311-23.956-16.967-39.925-16.967h-910.222z" />
<glyph unicode="&#xe918;" glyph-name="keyboard_arrow_left" d="M785.216 81.22c16.967-14.976 25.451-34.935 25.451-59.887 0-22.955-8.484-42.914-25.451-59.887-15.968-16.964-35.93-25.446-59.883-25.446s-43.914 8.482-59.883 25.446l-417.685 417.688c-17.965 18.964-26.947 41.918-26.947 68.866 0 27.946 8.982 50.9 26.947 68.866l417.685 417.684c15.968 16.967 35.93 25.45 59.883 25.45s43.914-8.483 59.883-25.45c16.967-15.969 25.451-35.93 25.451-59.883s-8.484-43.914-25.451-59.883l-417.684-417.684c-4.99-4.99-8.484 1.996-10.48 20.959-1.996 19.961-1.996 39.423 0 58.386 1.996 19.961 5.489 27.447 10.48 22.456l417.684-417.68z" />
<glyph unicode="&#xe919;" glyph-name="keyboard_double_arrow_left" d="M527.892 109.434c15.662-13.824 23.493-32.248 23.493-55.28 0-21.189-7.831-39.613-23.493-55.28-14.74-15.659-33.166-23.489-55.276-23.489s-40.536 7.83-55.276 23.489l-385.555 385.558c-16.583 17.505-24.875 38.694-24.875 63.568 0 25.796 8.291 46.985 24.875 63.568l385.555 385.554c14.74 15.662 33.166 23.493 55.276 23.493s40.536-7.831 55.276-23.493c15.662-14.74 23.493-33.166 23.493-55.277s-7.831-40.536-23.493-55.276l-385.554-385.555c-4.606-4.606-7.831 1.842-9.674 19.347-1.842 18.426-1.842 36.391 0 53.895 1.842 18.426 5.067 25.335 9.674 20.729l385.554-385.551zM1000.511 109.434c15.659-13.824 23.489-32.248 23.489-55.28 0-21.189-7.83-39.613-23.489-55.28-14.746-15.659-33.17-23.489-55.28-23.489s-40.535 7.83-55.28 23.489l-385.551 385.558c-16.583 17.505-24.875 38.694-24.875 63.568 0 25.796 8.291 46.985 24.875 63.568l385.551 385.554c14.746 15.662 33.17 23.493 55.28 23.493s40.535-7.831 55.28-23.493c15.659-14.74 23.489-33.166 23.489-55.277s-7.83-40.536-23.489-55.276l-385.558-385.555c-4.606-4.606-7.831 1.842-9.674 19.347-1.842 18.426-1.842 36.391 0 53.895 1.842 18.426 5.067 25.335 9.674 20.729l385.558-385.551z" />
<glyph unicode="&#xe91a;" glyph-name="keyboard_arrow_right" d="M358.549-38.554c-14.97-16.964-34.931-25.446-59.883-25.446-22.955 0-42.916 8.482-59.883 25.446-16.967 16.973-25.45 36.932-25.45 59.887 0 24.951 8.483 44.911 25.45 59.887l417.684 417.68c4.99 4.99 8.484-2.495 10.48-22.456 1.996-18.963 1.996-38.425 0-58.386-1.996-18.963-5.489-25.949-10.48-20.959l-417.684 417.684c-16.967 15.968-25.45 35.93-25.45 59.883s8.483 43.914 25.45 59.883c16.967 16.967 36.928 25.45 59.883 25.45 24.951 0 44.913-8.483 59.883-25.45l417.684-417.684c18.963-17.965 28.445-40.92 28.445-68.866 0-26.947-9.482-49.902-28.445-68.866l-417.684-417.688z" />
<glyph unicode="&#xe91b;" glyph-name="keyboard_double_arrow_righ" d="M606.662-1.126c-13.819-15.659-32.245-23.489-55.277-23.489-21.19 0-39.615 7.83-55.276 23.489-15.662 15.667-23.493 34.091-23.493 55.28 0 23.032 7.831 41.456 23.493 55.28l385.556 385.551c4.608 4.606 7.83-2.303 9.673-20.729 1.843-17.504 1.843-35.469 0-53.895-1.843-17.504-5.065-23.953-9.673-19.347l-385.556 385.555c-15.662 14.74-23.493 33.166-23.493 55.276s7.831 40.536 23.493 55.277c15.662 15.662 34.087 23.493 55.276 23.493 23.032 0 41.458-7.831 55.277-23.493l385.555-385.554c17.503-16.583 26.254-37.772 26.254-63.568 0-24.875-8.751-46.063-26.254-63.568l-385.555-385.558zM134.046-1.126c-13.818-15.659-32.244-23.489-55.276-23.489-21.189 0-39.615 7.83-55.277 23.489-15.662 15.667-23.493 34.091-23.493 55.28 0 23.032 7.831 41.456 23.493 55.28l385.554 385.551c4.606 4.606 7.831-2.303 9.674-20.729 1.842-17.504 1.842-35.469 0-53.895-1.842-17.504-5.067-23.953-9.674-19.347l-385.554 385.555c-15.662 14.74-23.493 33.166-23.493 55.276s7.831 40.536 23.493 55.277c15.662 15.662 34.087 23.493 55.277 23.493 23.032 0 41.458-7.831 55.276-23.493l385.555-385.554c17.504-16.583 26.257-37.772 26.257-63.568 0-24.875-8.753-46.063-26.257-63.568l-385.555-385.558z" />
<glyph unicode="&#xe91c;" glyph-name="keyboard_arrow_down" d="M878.78 721.216c15.974 16.967 35.934 25.45 59.887 25.45s43.913-8.483 59.887-25.45c16.964-15.969 25.446-35.93 25.446-59.883s-8.482-43.914-25.446-59.883l-417.688-417.684c-17.965-17.965-40.92-26.947-68.866-26.947-26.947 0-49.902 8.982-68.866 26.947l-417.684 417.684c-16.967 15.968-25.45 35.93-25.45 59.883s8.483 43.914 25.45 59.883c16.967 16.967 36.928 25.45 59.883 25.45 24.951 0 44.913-8.483 59.883-25.45l417.684-417.684c4.99-4.99-2.495-8.484-22.456-10.48-18.963-1.996-38.425-1.996-58.386 0-18.963 1.996-25.949 5.489-20.959 10.48l417.68 417.684z" />
<glyph unicode="&#xe91d;" glyph-name="keyboard_double_arrow_do" d="M850.566 463.892c14.746 15.662 33.17 23.493 55.28 23.493s40.535-7.831 55.28-23.493c15.659-14.74 23.489-33.166 23.489-55.276s-7.83-40.536-23.489-55.276l-385.558-385.556c-16.583-16.581-37.772-24.875-63.568-24.875-24.875 0-46.063 8.294-63.568 24.875l-385.554 385.556c-15.662 14.74-23.493 33.166-23.493 55.276s7.831 40.536 23.493 55.276c15.662 15.662 34.087 23.493 55.277 23.493 23.032 0 41.458-7.831 55.276-23.493l385.555-385.556c4.606-4.608-2.303-7.83-20.729-9.673-17.504-1.843-35.469-1.843-53.895 0-17.504 1.843-23.953 5.065-19.347 9.673l385.551 385.556zM850.566 936.507c14.746 15.662 33.17 23.493 55.28 23.493s40.535-7.831 55.28-23.493c15.659-14.74 23.489-33.166 23.489-55.277s-7.83-40.536-23.489-55.276l-385.558-385.555c-16.583-16.583-37.772-24.875-63.568-24.875-24.875 0-46.063 8.291-63.568 24.875l-385.554 385.555c-15.662 14.74-23.493 33.166-23.493 55.276s7.831 40.536 23.493 55.277c15.662 15.662 34.087 23.493 55.277 23.493 23.032 0 41.458-7.831 55.276-23.493l385.555-385.554c4.606-4.606-2.303-7.831-20.729-9.674-17.504-1.842-35.469-1.842-53.895 0-17.504 1.842-23.953 5.067-19.347 9.674l385.551 385.554z" />
<glyph unicode="&#xe91e;" glyph-name="keyboard_arrow_up" d="M998.554 294.549c16.964-14.97 25.446-34.931 25.446-59.883 0-22.956-8.482-42.916-25.446-59.883-15.974-16.967-35.934-25.451-59.887-25.451s-43.913 8.484-59.887 25.451l-417.68 417.684c-4.99 4.99 1.996 8.484 20.959 10.48 19.961 1.996 39.423 1.996 58.386 0 19.961-1.996 27.447-5.489 22.456-10.48l-417.684-417.684c-14.97-16.967-34.931-25.451-59.883-25.451-22.955 0-42.916 8.484-59.883 25.451s-25.45 36.927-25.45 59.883c0 24.951 8.483 44.913 25.45 59.883l417.684 417.685c18.964 18.963 41.918 28.444 68.866 28.444 27.946 0 50.9-9.481 68.866-28.444l417.688-417.685z" />
<glyph unicode="&#xe91f;" glyph-name="keyboard_double_arrow_up" d="M173.43 432.108c-13.818-15.662-32.244-23.493-55.276-23.493-21.189 0-39.615 7.831-55.277 23.493s-23.493 34.087-23.493 55.276c0 23.032 7.831 41.458 23.493 55.277l385.554 385.554c17.505 17.504 38.694 26.256 63.568 26.256 25.796 0 46.985-8.752 63.568-26.256l385.558-385.554c15.659-13.819 23.489-32.245 23.489-55.277 0-21.19-7.83-39.615-23.489-55.276-14.746-15.662-33.17-23.493-55.28-23.493s-40.535 7.831-55.28 23.493l-385.551 385.554c-4.606 4.606 1.842 7.831 19.347 9.674 18.426 1.842 36.391 1.842 53.895 0 18.426-1.842 25.335-5.067 20.729-9.674l-385.555-385.554zM173.43-40.511c-13.818-15.659-32.244-23.489-55.276-23.489-21.189 0-39.615 7.83-55.277 23.489-15.662 15.667-23.493 34.091-23.493 55.28 0 23.032 7.831 41.456 23.493 55.28l385.554 385.551c17.505 17.504 38.694 26.257 63.568 26.257 25.796 0 46.985-8.753 63.568-26.257l385.558-385.551c15.659-13.824 23.489-32.248 23.489-55.28 0-21.189-7.83-39.613-23.489-55.28-14.746-15.659-33.17-23.489-55.28-23.489s-40.535 7.83-55.28 23.489l-385.551 385.558c-4.606 4.606 1.842 7.831 19.347 9.674 18.426 1.842 36.391 1.842 53.895 0 18.426-1.842 25.335-5.067 20.729-9.674l-385.555-385.558z" />
<glyph unicode="&#xe920;" glyph-name="calendar_today" d="M256 755.2c-32.337 0-57.488-8.983-75.452-26.948s-26.948-43.116-26.948-75.452h716.8c0 32.337-8.98 57.488-26.947 75.452s-43.116 26.948-75.453 26.948h-512zM768 857.6c37.724 0 72.161-8.983 103.296-26.948 31.739-17.965 56.591-42.816 74.557-74.554 17.966-31.139 26.947-65.572 26.947-103.298v-102.4h-921.6v102.4c0 37.726 8.982 72.159 26.947 103.298 18.564 31.738 43.415 56.59 74.555 74.554 31.738 17.965 66.17 26.948 103.298 26.948h512zM153.6 140.8c0-32.338 8.983-57.487 26.948-75.453s43.116-26.947 75.452-26.947h512c32.338 0 57.487 8.98 75.453 26.947s26.947 43.116 26.947 75.453v409.6h-716.8v-409.6zM972.8 652.8v-512c0-37.125-8.98-71.562-26.947-103.296-17.966-31.14-42.819-55.992-74.557-74.557-31.135-17.966-65.572-26.947-103.296-26.947h-512c-37.128 0-71.56 8.98-103.298 26.947-31.139 18.565-55.991 43.418-74.555 74.557-17.965 31.734-26.947 66.171-26.947 103.296v512h921.6zM204.8 908.8c0 14.372 5.090 26.349 15.27 35.93 10.18 10.18 22.156 15.27 35.93 15.27 14.372 0 26.349-5.090 35.93-15.27 10.18-9.581 15.27-21.558 15.27-35.93v-102.4c0-13.773-5.090-25.75-15.27-35.93-9.581-10.18-21.558-15.27-35.93-15.27-13.773 0-25.75 5.090-35.93 15.27s-15.27 22.156-15.27 35.93v102.4zM819.2 806.4c0-13.773-5.089-25.75-15.268-35.93-9.585-10.18-21.56-15.27-35.932-15.27-13.773 0-25.748 5.090-35.932 15.27-10.179 10.18-15.268 22.156-15.268 35.93v102.4c0 14.372 5.089 26.349 15.268 35.93 10.184 10.18 22.159 15.27 35.932 15.27 14.372 0 26.348-5.090 35.932-15.27 10.179-9.581 15.268-21.558 15.268-35.93v-102.4z" />
<glyph unicode="&#xe921;" glyph-name="event_note" d="M716.8 448c14.372 0 26.348-5.089 35.932-15.268 10.179-9.585 15.268-21.56 15.268-35.932 0-13.773-5.089-25.748-15.268-35.932-9.585-10.179-21.56-15.268-35.932-15.268h-409.6c-13.773 0-25.75 5.089-35.93 15.268-10.18 10.184-15.27 22.159-15.27 35.932 0 14.372 5.090 26.348 15.27 35.932 10.18 10.179 22.156 15.268 35.93 15.268h409.6zM512 243.2c14.372 0 26.349-5.089 35.93-15.268 10.181-9.585 15.27-21.56 15.27-35.932 0-13.773-5.090-25.748-15.27-35.932-9.581-10.179-21.558-15.268-35.93-15.268h-204.8c-13.773 0-25.75 5.089-35.93 15.268-10.18 10.184-15.27 22.159-15.27 35.932 0 14.372 5.090 26.348 15.27 35.932 10.18 10.179 22.156 15.268 35.93 15.268h204.8zM256 755.2c-32.337 0-57.488-8.983-75.452-26.948s-26.948-43.116-26.948-75.452h716.8c0 32.337-8.98 57.488-26.947 75.452s-43.116 26.948-75.453 26.948h-512zM768 857.6c37.724 0 72.161-8.983 103.296-26.948 31.739-17.965 56.591-42.816 74.557-74.554 17.966-31.139 26.947-65.572 26.947-103.298v-102.4h-921.6v102.4c0 37.726 8.982 72.159 26.947 103.298 18.564 31.738 43.415 56.59 74.555 74.554 31.738 17.965 66.17 26.948 103.298 26.948h512zM153.6 140.8c0-32.338 8.983-57.487 26.948-75.453s43.116-26.947 75.452-26.947h512c32.338 0 57.487 8.98 75.453 26.947s26.947 43.116 26.947 75.453v409.6h-716.8v-409.6zM972.8 652.8v-512c0-37.125-8.98-71.562-26.947-103.296-17.966-31.14-42.819-55.992-74.557-74.557-31.135-17.966-65.572-26.947-103.296-26.947h-512c-37.128 0-71.56 8.98-103.298 26.947-31.139 18.565-55.991 43.418-74.555 74.557-17.965 31.734-26.947 66.171-26.947 103.296v512h921.6zM204.8 908.8c0 14.372 5.090 26.349 15.27 35.93 10.18 10.18 22.156 15.27 35.93 15.27 14.372 0 26.349-5.090 35.93-15.27 10.18-9.581 15.27-21.558 15.27-35.93v-102.4c0-13.773-5.090-25.75-15.27-35.93-9.581-10.18-21.558-15.27-35.93-15.27-13.773 0-25.75 5.090-35.93 15.27s-15.27 22.156-15.27 35.93v102.4zM819.2 806.4c0-13.773-5.089-25.75-15.268-35.93-9.585-10.18-21.56-15.27-35.932-15.27-13.773 0-25.748 5.090-35.932 15.27-10.179 10.18-15.268 22.156-15.268 35.93v102.4c0 14.372 5.089 26.349 15.268 35.93 10.184 10.18 22.159 15.27 35.932 15.27 14.372 0 26.348-5.090 35.932-15.27 10.179-9.581 15.268-21.558 15.268-35.93v-102.4z" />
<glyph unicode="&#xe922;" glyph-name="event" d="M665.6 345.6c18.565 0 35.63-4.792 51.2-14.372 15.57-8.98 27.848-21.258 36.828-36.828 9.58-15.57 14.372-32.635 14.372-51.2 0-17.966-4.792-35.031-14.372-51.2-8.98-15.57-21.258-28.145-36.828-37.724-15.57-8.986-32.635-13.476-51.2-13.476-17.966 0-35.031 4.49-51.2 13.476-15.57 9.58-28.145 22.154-37.724 37.724-8.986 16.169-13.476 33.234-13.476 51.2 0 18.565 4.49 35.63 13.476 51.2 9.58 15.57 22.154 27.848 37.724 36.828 16.169 9.58 33.234 14.372 51.2 14.372zM256 755.2c-32.337 0-57.488-8.983-75.452-26.948s-26.948-43.116-26.948-75.452h716.8c0 32.337-8.98 57.488-26.947 75.452s-43.116 26.948-75.453 26.948h-512zM768 857.6c37.724 0 72.161-8.983 103.296-26.948 31.739-17.965 56.591-42.816 74.557-74.554 17.966-31.139 26.947-65.572 26.947-103.298v-102.4h-921.6v102.4c0 37.726 8.982 72.159 26.947 103.298 18.564 31.738 43.415 56.59 74.555 74.554 31.738 17.965 66.17 26.948 103.298 26.948h512zM153.6 140.8c0-32.338 8.983-57.487 26.948-75.453s43.116-26.947 75.452-26.947h512c32.338 0 57.487 8.98 75.453 26.947s26.947 43.116 26.947 75.453v409.6h-716.8v-409.6zM972.8 652.8v-512c0-37.125-8.98-71.562-26.947-103.296-17.966-31.14-42.819-55.992-74.557-74.557-31.135-17.966-65.572-26.947-103.296-26.947h-512c-37.128 0-71.56 8.98-103.298 26.947-31.139 18.565-55.991 43.418-74.555 74.557-17.965 31.734-26.947 66.171-26.947 103.296v512h921.6zM204.8 908.8c0 14.372 5.090 26.349 15.27 35.93 10.18 10.18 22.156 15.27 35.93 15.27 14.372 0 26.349-5.090 35.93-15.27 10.18-9.581 15.27-21.558 15.27-35.93v-102.4c0-13.773-5.090-25.75-15.27-35.93-9.581-10.18-21.558-15.27-35.93-15.27-13.773 0-25.75 5.090-35.93 15.27s-15.27 22.156-15.27 35.93v102.4zM819.2 806.4c0-13.773-5.089-25.75-15.268-35.93-9.585-10.18-21.56-15.27-35.932-15.27-13.773 0-25.748 5.090-35.932 15.27-10.179 10.18-15.268 22.156-15.268 35.93v102.4c0 14.372 5.089 26.349 15.268 35.93 10.184 10.18 22.159 15.27 35.932 15.27 14.372 0 26.348-5.090 35.932-15.27 10.179-9.581 15.268-21.558 15.268-35.93v-102.4z" />
<glyph unicode="&#xe923;" glyph-name="event_available" d="M256 755.2c-32.337 0-57.488-8.983-75.452-26.948s-26.948-43.116-26.948-75.452h716.8c0 32.337-8.98 57.488-26.947 75.452s-43.116 26.948-75.453 26.948h-512zM768 857.6c37.724 0 72.161-8.983 103.296-26.948 31.739-17.965 56.591-42.816 74.557-74.554 17.966-31.139 26.947-65.572 26.947-103.298v-102.4h-921.6v102.4c0 37.726 8.982 72.159 26.947 103.298 18.564 31.738 43.415 56.59 74.555 74.554 31.738 17.965 66.17 26.948 103.298 26.948h512zM153.6 140.8c0-32.338 8.983-57.487 26.948-75.453s43.116-26.947 75.452-26.947h512c32.338 0 57.487 8.98 75.453 26.947s26.947 43.116 26.947 75.453v409.6h-716.8v-409.6zM972.8 652.8v-512c0-37.125-8.98-71.562-26.947-103.296-17.966-31.14-42.819-55.992-74.557-74.557-31.135-17.966-65.572-26.947-103.296-26.947h-512c-37.128 0-71.56 8.98-103.298 26.947-31.139 18.565-55.991 43.418-74.555 74.557-17.965 31.734-26.947 66.171-26.947 103.296v512h921.6zM204.8 908.8c0 14.372 5.090 26.349 15.27 35.93 10.18 10.18 22.156 15.27 35.93 15.27 14.372 0 26.349-5.090 35.93-15.27 10.18-9.581 15.27-21.558 15.27-35.93v-102.4c0-13.773-5.090-25.75-15.27-35.93-9.581-10.18-21.558-15.27-35.93-15.27-13.773 0-25.75 5.090-35.93 15.27s-15.27 22.156-15.27 35.93v102.4zM819.2 806.4c0-13.773-5.089-25.75-15.268-35.93-9.585-10.18-21.56-15.27-35.932-15.27-13.773 0-25.748 5.090-35.932 15.27-10.179 10.18-15.268 22.156-15.268 35.93v102.4c0 14.372 5.089 26.349 15.268 35.93 10.184 10.18 22.159 15.27 35.932 15.27 14.372 0 26.348-5.090 35.932-15.27 10.179-9.581 15.268-21.558 15.268-35.93v-102.4zM631.465 432.732c9.585 10.179 21.56 15.268 35.932 15.268s26.348-5.089 35.927-15.268c10.184-9.585 15.273-21.56 15.273-35.932s-5.089-26.348-15.273-35.932l-199.408-199.409c-10.779-10.778-24.552-16.169-41.319-16.169-16.168 0-29.942 5.391-41.319 16.169l-97.011 97.009c-10.18 9.585-15.27 21.56-15.27 35.932s5.090 26.348 15.27 35.932c10.18 10.179 22.157 15.268 35.93 15.268 14.971 0 26.947-5.089 35.93-15.268l97.011-97.014c2.994-2.995-1.497-5.089-13.474-6.287-11.378-1.198-23.055-1.198-35.032 0-11.378 1.198-15.569 3.292-12.575 6.287l199.409 199.414z" />
<glyph unicode="&#xe924;" glyph-name="event_busy" d="M256 755.2c-32.337 0-57.488-8.983-75.452-26.948s-26.948-43.116-26.948-75.452h716.8c0 32.337-8.98 57.488-26.947 75.452s-43.116 26.948-75.453 26.948h-512zM768 857.6c37.724 0 72.161-8.983 103.296-26.948 31.739-17.965 56.591-42.816 74.557-74.554 17.966-31.139 26.947-65.572 26.947-103.298v-102.4h-921.6v102.4c0 37.726 8.982 72.159 26.947 103.298 18.564 31.738 43.415 56.59 74.555 74.554 31.738 17.965 66.17 26.948 103.298 26.948h512zM153.6 140.8c0-32.338 8.983-57.487 26.948-75.453s43.116-26.947 75.452-26.947h512c32.338 0 57.487 8.98 75.453 26.947s26.947 43.116 26.947 75.453v409.6h-716.8v-409.6zM972.8 652.8v-512c0-37.125-8.98-71.562-26.947-103.296-17.966-31.14-42.819-55.992-74.557-74.557-31.135-17.966-65.572-26.947-103.296-26.947h-512c-37.128 0-71.56 8.98-103.298 26.947-31.139 18.565-55.991 43.418-74.555 74.557-17.965 31.734-26.947 66.171-26.947 103.296v512h921.6zM204.8 908.8c0 14.372 5.090 26.349 15.27 35.93 10.18 10.18 22.156 15.27 35.93 15.27 14.372 0 26.349-5.090 35.93-15.27 10.18-9.581 15.27-21.558 15.27-35.93v-102.4c0-13.773-5.090-25.75-15.27-35.93-9.581-10.18-21.558-15.27-35.93-15.27-13.773 0-25.75 5.090-35.93 15.27s-15.27 22.156-15.27 35.93v102.4zM819.2 806.4c0-13.773-5.089-25.75-15.268-35.93-9.585-10.18-21.56-15.27-35.932-15.27-13.773 0-25.748 5.090-35.932 15.27-10.179 10.18-15.268 22.156-15.268 35.93v102.4c0 14.372 5.089 26.349 15.268 35.93 10.184 10.18 22.159 15.27 35.932 15.27 14.372 0 26.348-5.090 35.932-15.27 10.179-9.581 15.268-21.558 15.268-35.93v-102.4zM373.67 360.868c-10.18 9.585-15.27 21.56-15.27 35.932s5.090 26.348 15.27 35.932c10.18 10.179 22.156 15.268 35.93 15.268 14.971 0 26.948-5.089 35.93-15.268l204.803-204.8c10.179-8.986 15.268-20.961 15.268-35.932 0-13.773-5.089-25.748-15.268-35.932-9.585-10.179-21.56-15.268-35.932-15.268s-26.348 5.089-35.932 15.268l-204.797 204.8zM578.468 432.732c9.585 10.179 21.56 15.268 35.932 15.268s26.348-5.089 35.932-15.268c10.179-9.585 15.268-21.56 15.268-35.932s-5.089-26.348-15.268-35.932l-204.803-204.8c-8.982-10.179-20.959-15.268-35.93-15.268-13.773 0-25.75 5.089-35.93 15.268-10.18 10.184-15.27 22.159-15.27 35.932 0 14.971 5.090 26.947 15.27 35.932l204.797 204.8z" />
<glyph unicode="&#xe925;" glyph-name="date_range" d="M256 755.2c-32.337 0-57.488-8.983-75.452-26.948s-26.948-43.116-26.948-75.452h716.8c0 32.337-8.98 57.488-26.947 75.452s-43.116 26.948-75.453 26.948h-512zM768 857.6c37.724 0 72.161-8.983 103.296-26.948 31.739-17.965 56.591-42.816 74.557-74.554 17.966-31.139 26.947-65.572 26.947-103.298v-102.4h-921.6v102.4c0 37.726 8.982 72.159 26.947 103.298 18.564 31.738 43.415 56.59 74.555 74.554 31.738 17.965 66.17 26.948 103.298 26.948h512zM153.6 140.8c0-32.338 8.983-57.487 26.948-75.453s43.116-26.947 75.452-26.947h512c32.338 0 57.487 8.98 75.453 26.947s26.947 43.116 26.947 75.453v409.6h-716.8v-409.6zM972.8 652.8v-512c0-37.125-8.98-71.562-26.947-103.296-17.966-31.14-42.819-55.992-74.557-74.557-31.135-17.966-65.572-26.947-103.296-26.947h-512c-37.128 0-71.56 8.98-103.298 26.947-31.139 18.565-55.991 43.418-74.555 74.557-17.965 31.734-26.947 66.171-26.947 103.296v512h921.6zM204.8 908.8c0 14.372 5.090 26.349 15.27 35.93 10.18 10.18 22.156 15.27 35.93 15.27 14.372 0 26.349-5.090 35.93-15.27 10.18-9.581 15.27-21.558 15.27-35.93v-102.4c0-13.773-5.090-25.75-15.27-35.93-9.581-10.18-21.558-15.27-35.93-15.27-13.773 0-25.75 5.090-35.93 15.27s-15.27 22.156-15.27 35.93v102.4zM819.2 806.4c0-13.773-5.089-25.75-15.268-35.93-9.585-10.18-21.56-15.27-35.932-15.27-13.773 0-25.748 5.090-35.932 15.27-10.179 10.18-15.268 22.156-15.268 35.93v102.4c0 14.372 5.089 26.349 15.268 35.93 10.184 10.18 22.159 15.27 35.932 15.27 14.372 0 26.348-5.090 35.932-15.27 10.179-9.581 15.268-21.558 15.268-35.93v-102.4zM307.2 260.265c18.564 0 34.433-6.886 47.607-20.659 13.773-13.174 20.66-29.041 20.66-47.606s-6.886-34.734-20.66-48.507c-13.174-13.174-29.043-19.758-47.607-19.758s-34.732 6.584-48.505 19.758c-13.174 13.773-19.761 29.942-19.761 48.507s6.587 34.432 19.761 47.606c13.773 13.773 29.942 20.659 48.505 20.659zM512 260.265c18.564 0 34.433-6.886 47.607-20.659 13.771-13.174 20.658-29.041 20.658-47.606s-6.886-34.734-20.658-48.507c-13.174-13.174-29.044-19.758-47.607-19.758s-34.732 6.584-48.505 19.758c-13.174 13.773-19.761 29.942-19.761 48.507s6.587 34.432 19.761 47.606c13.773 13.773 29.942 20.659 48.505 20.659zM716.8 260.265c18.565 0 34.432-6.886 47.606-20.659 13.773-13.174 20.659-29.041 20.659-47.606s-6.886-34.734-20.659-48.507c-13.174-13.174-29.041-19.758-47.606-19.758s-34.734 6.584-48.507 19.758c-13.174 13.773-19.758 29.942-19.758 48.507s6.584 34.432 19.758 47.606c13.773 13.773 29.942 20.659 48.507 20.659zM307.2 465.066c18.564 0 34.433-6.886 47.607-20.661 13.773-13.174 20.66-29.041 20.66-47.606s-6.886-34.734-20.66-48.507c-13.174-13.174-29.043-19.758-47.607-19.758s-34.732 6.584-48.505 19.758c-13.174 13.773-19.761 29.942-19.761 48.507s6.587 34.432 19.761 47.606c13.773 13.774 29.942 20.661 48.505 20.661zM512 465.066c18.564 0 34.433-6.886 47.607-20.661 13.771-13.174 20.658-29.041 20.658-47.606s-6.886-34.734-20.658-48.507c-13.174-13.174-29.044-19.758-47.607-19.758s-34.732 6.584-48.505 19.758c-13.174 13.773-19.761 29.942-19.761 48.507s6.587 34.432 19.761 47.606c13.773 13.774 29.942 20.661 48.505 20.661zM716.8 465.066c18.565 0 34.432-6.886 47.606-20.661 13.773-13.174 20.659-29.041 20.659-47.606s-6.886-34.734-20.659-48.507c-13.174-13.174-29.041-19.758-47.606-19.758s-34.734 6.584-48.507 19.758c-13.174 13.773-19.758 29.942-19.758 48.507s6.584 34.432 19.758 47.606c13.773 13.774 29.942 20.661 48.507 20.661z" />
<glyph unicode="&#xe926;" glyph-name="info" d="M512 38.4c76.652 0 146.115 17.966 208.394 53.893 62.874 35.932 111.98 85.038 147.313 147.313 35.927 62.879 53.893 132.342 53.893 208.394 0 76.65-17.966 146.115-53.893 208.393-35.333 62.877-84.439 111.981-147.313 147.312-62.28 35.93-131.743 53.895-208.394 53.895-76.051 0-145.516-17.965-208.393-53.895-62.278-35.331-111.382-84.435-147.312-147.312-35.93-62.279-53.895-131.743-53.895-208.393 0-76.052 17.965-145.516 53.895-208.394 35.93-62.275 85.034-111.38 147.312-147.313 62.877-35.927 132.342-53.893 208.393-53.893zM512-64c-92.22 0-177.852 22.753-256.898 68.265-78.447 46.111-140.725 108.39-186.835 186.839-45.511 79.043-68.266 164.675-68.266 256.896 0 92.819 22.756 178.451 68.266 256.898 46.11 78.447 108.388 140.426 186.835 185.937 79.046 46.11 164.678 69.165 256.898 69.165 92.82 0 178.452-23.055 256.896-69.165 78.449-45.511 140.426-107.789 185.938-186.835 46.111-78.447 69.166-163.78 69.166-256 0-92.221-23.055-177.853-69.166-256.896-45.512-78.449-107.786-140.728-186.834-186.839-78.449-45.512-163.779-68.265-256-68.265zM460.8 465.066c0 14.372 5.090 26.349 15.27 35.93 10.18 10.18 22.156 15.27 35.93 15.27 14.372 0 26.348-5.090 35.932-15.27 10.179-9.582 15.268-21.558 15.268-35.93v-221.866c0-13.773-5.089-25.748-15.268-35.932-9.585-10.179-21.56-15.268-35.932-15.268-13.773 0-25.75 5.089-35.93 15.268-10.18 10.184-15.27 22.159-15.27 35.932v221.866zM512 704c18.565 0 34.432-6.886 47.606-20.66 13.773-13.174 20.659-29.043 20.659-47.607s-6.886-34.733-20.659-48.505c-13.174-13.174-29.041-19.762-47.606-19.762s-34.732 6.587-48.505 19.762c-13.174 13.773-19.761 29.941-19.761 48.505s6.587 34.433 19.761 47.607c13.773 13.773 29.942 20.66 48.505 20.66z" />
<glyph unicode="&#xe927;" glyph-name="error" d="M512 38.4c76.652 0 146.115 17.966 208.394 53.893 62.874 35.932 111.98 85.038 147.313 147.313 35.927 62.879 53.893 132.342 53.893 208.394 0 76.65-17.966 146.115-53.893 208.393-35.333 62.877-84.439 111.981-147.313 147.312-62.28 35.93-131.743 53.895-208.394 53.895-76.051 0-145.516-17.965-208.393-53.895-62.278-35.331-111.382-84.435-147.312-147.312-35.93-62.279-53.895-131.743-53.895-208.393 0-76.052 17.965-145.516 53.895-208.394 35.93-62.275 85.034-111.38 147.312-147.313 62.877-35.927 132.342-53.893 208.393-53.893zM512-64c-92.22 0-177.852 22.753-256.898 68.265-78.447 46.111-140.725 108.39-186.835 186.839-45.511 79.043-68.266 164.675-68.266 256.896 0 92.819 22.756 178.451 68.266 256.898 46.11 78.447 108.388 140.426 186.835 185.937 79.046 46.11 164.678 69.165 256.898 69.165 92.82 0 178.452-23.055 256.896-69.165 78.449-45.511 140.426-107.789 185.938-186.835 46.111-78.447 69.166-163.78 69.166-256 0-92.221-23.055-177.853-69.166-256.896-45.512-78.449-107.786-140.728-186.834-186.839-78.449-45.512-163.779-68.265-256-68.265zM460.8 704c0 14.372 5.090 26.349 15.27 35.93 10.18 10.18 22.156 15.27 35.93 15.27 14.372 0 26.348-5.090 35.932-15.27 10.179-9.581 15.268-21.558 15.268-35.93v-324.265c0-13.773-5.089-25.754-15.268-35.932-9.585-10.179-21.56-15.268-35.932-15.268-13.773 0-25.75 5.089-35.93 15.268s-15.27 22.159-15.27 35.932v324.265zM512 140.8c-18.564 0-34.732 6.589-48.505 19.763-13.174 13.773-19.761 29.942-19.761 48.502 0 18.565 6.587 34.432 19.761 47.611 13.773 13.773 29.942 20.659 48.505 20.659 18.565 0 34.432-6.886 47.606-20.659 13.773-13.179 20.659-29.046 20.659-47.611 0-18.56-6.886-34.729-20.659-48.502-13.174-13.174-29.041-19.763-47.606-19.763z" />
<glyph unicode="&#xe928;" glyph-name="help" d="M512 38.4c76.652 0 146.115 17.966 208.394 53.893 62.874 35.932 111.98 85.038 147.313 147.313 35.927 62.879 53.893 132.342 53.893 208.394 0 76.65-17.966 146.115-53.893 208.393-35.333 62.877-84.439 111.981-147.313 147.312-62.28 35.93-131.743 53.895-208.394 53.895-76.051 0-145.516-17.965-208.393-53.895-62.278-35.331-111.382-84.435-147.312-147.312-35.93-62.279-53.895-131.743-53.895-208.393 0-76.052 17.965-145.516 53.895-208.394 35.93-62.275 85.034-111.38 147.312-147.313 62.877-35.927 132.342-53.893 208.393-53.893zM512-64c-92.22 0-177.852 22.753-256.898 68.265-78.447 46.111-140.725 108.39-186.835 186.839-45.511 79.043-68.266 164.675-68.266 256.896 0 92.819 22.756 178.451 68.266 256.898 46.11 78.447 108.388 140.426 186.835 185.937 79.046 46.11 164.678 69.165 256.898 69.165 92.82 0 178.452-23.055 256.896-69.165 78.449-45.511 140.426-107.49 185.938-185.937 46.111-78.447 69.166-164.079 69.166-256.898 0-92.221-23.055-177.853-69.166-256.896-45.512-78.449-107.489-140.728-185.938-186.839-78.444-45.512-164.076-68.265-256.896-68.265zM563.2 379.735c0-13.773-5.089-25.754-15.268-35.932-9.585-10.179-21.56-15.268-35.932-15.268-13.773 0-25.75 5.089-35.93 15.268s-15.27 22.159-15.27 35.932c0 29.343 7.186 53.893 21.558 73.654s34.435 39.822 60.183 60.183c16.169 13.773 27.848 25.151 35.031 34.134 7.782 8.983 11.679 18.564 11.679 28.744 0 24.552-6.886 43.416-20.659 56.59-13.174 13.174-32.041 19.761-56.591 19.761-24.552 0-43.415-6.587-56.589-19.761s-19.762-32.038-19.762-56.59c0-13.773-5.090-25.75-15.27-35.93-9.582-10.18-21.558-15.27-35.93-15.27-13.773 0-25.75 5.090-35.93 15.27s-15.27 22.157-15.27 35.93c0 32.337 7.785 62.279 23.354 89.825 16.168 27.546 38.026 49.104 65.572 64.674 27.547 16.168 57.488 24.252 89.825 24.252 32.937 0 63.176-8.084 90.721-24.252 27.546-15.57 49.106-37.128 64.676-64.674 16.169-27.546 24.253-57.488 24.253-89.825 0-19.761-3.896-37.726-11.679-53.895-7.183-16.168-16.169-29.642-26.947-40.421-10.179-10.779-23.951-23.354-41.318-37.728-16.768-14.372-29.046-26.045-36.828-35.031-7.788-8.98-11.679-18.862-11.679-29.64zM512 140.8c-18.564 0-34.732 6.589-48.505 19.763-13.174 13.773-19.761 29.942-19.761 48.502 0 18.565 6.587 34.432 19.761 47.611 13.773 13.773 29.942 20.659 48.505 20.659 18.565 0 34.432-6.886 47.606-20.659 13.773-13.179 20.659-29.046 20.659-47.611 0-18.56-6.886-34.729-20.659-48.502-13.174-13.174-29.041-19.763-47.606-19.763z" />
<glyph unicode="&#xe929;" glyph-name="play_circle" d="M512 38.4c76.652 0 146.115 17.966 208.394 53.893 62.874 35.932 111.98 85.038 147.313 147.313 35.927 62.879 53.893 132.342 53.893 208.394 0 76.65-17.966 146.115-53.893 208.393-35.333 62.877-84.439 111.981-147.313 147.312-62.28 35.93-131.743 53.895-208.394 53.895-76.051 0-145.516-17.965-208.393-53.895-62.278-35.331-111.382-84.435-147.312-147.312-35.93-62.279-53.895-131.743-53.895-208.393 0-76.052 17.965-145.516 53.895-208.394 35.93-62.275 85.034-111.38 147.312-147.313 62.877-35.927 132.342-53.893 208.393-53.893zM512-64c-92.22 0-177.852 22.753-256.898 68.265-78.447 46.111-140.725 108.39-186.835 186.839-45.511 79.043-68.266 164.675-68.266 256.896 0 92.819 22.756 178.451 68.266 256.898 46.11 78.447 108.388 140.426 186.835 185.937 79.046 46.11 164.678 69.165 256.898 69.165 92.82 0 178.452-23.055 256.896-69.165 78.449-45.511 140.426-107.789 185.938-186.835 46.111-78.447 69.166-163.78 69.166-256 0-92.221-23.055-177.853-69.166-256.896-45.512-78.449-107.786-140.728-186.834-186.839-78.449-45.512-163.779-68.265-256-68.265zM721.29 504.589c15.57-8.983 26.051-20.66 31.442-35.032 5.386-14.372 5.386-28.746 0-43.118-5.391-14.372-15.872-26.045-31.442-35.031l-265.88-153.6c-14.971-8.381-29.942-11.075-44.913-8.084-14.97 2.995-27.546 10.184-37.726 21.56-9.581 11.976-14.372 26.348-14.372 43.116v307.2c0 16.767 4.791 31.139 14.372 43.116 10.18 11.977 22.756 19.163 37.726 21.558 14.971 2.994 29.942 0.3 44.913-8.084l265.88-153.6z" />
<glyph unicode="&#xe92a;" glyph-name="stop_circle" d="M512 38.4c76.652 0 146.115 17.966 208.394 53.893 62.874 35.932 111.98 85.038 147.313 147.313 35.927 62.879 53.893 132.342 53.893 208.394 0 76.65-17.966 146.115-53.893 208.393-35.333 62.877-84.439 111.981-147.313 147.312-62.28 35.93-131.743 53.895-208.394 53.895-76.051 0-145.516-17.965-208.393-53.895-62.278-35.331-111.382-84.435-147.312-147.312-35.93-62.279-53.895-131.743-53.895-208.393 0-76.052 17.965-145.516 53.895-208.394 35.93-62.275 85.034-111.38 147.312-147.313 62.877-35.927 132.342-53.893 208.393-53.893zM512-64c-92.22 0-177.852 22.753-256.898 68.265-78.447 46.111-140.725 108.39-186.835 186.839-45.511 79.043-68.266 164.675-68.266 256.896 0 92.819 22.756 178.451 68.266 256.898 46.11 78.447 108.388 140.426 186.835 185.937 79.046 46.11 164.678 69.165 256.898 69.165 92.82 0 178.452-23.055 256.896-69.165 78.449-45.511 140.426-107.789 185.938-186.835 46.111-78.447 69.166-163.78 69.166-256 0-92.221-23.055-177.853-69.166-256.896-45.512-78.449-107.786-140.728-186.834-186.839-78.449-45.512-163.779-68.265-256-68.265zM295.523 550.4c0 20.36 5.090 39.223 15.27 56.589 10.18 17.965 23.953 32.037 41.319 42.218 17.965 10.18 37.128 15.27 57.488 15.27h204.8c20.362 0 39.224-5.090 56.591-15.27 17.961-10.181 32.036-24.253 42.214-42.218 10.184-17.366 15.273-36.229 15.273-56.589v-204.8c0-20.362-5.089-39.521-15.273-57.487-10.179-17.367-24.253-31.14-42.214-41.318-17.367-10.184-36.229-15.273-56.591-15.273h-204.8c-20.36 0-39.523 5.089-57.488 15.273-17.366 10.179-31.139 23.951-41.319 41.318-10.18 17.966-15.27 37.125-15.27 57.487v204.8z" />
<glyph unicode="&#xe92b;" glyph-name="pause_circle" d="M512 38.4c76.652 0 146.115 17.966 208.394 53.893 62.874 35.932 111.98 85.038 147.313 147.313 35.927 62.879 53.893 132.342 53.893 208.394 0 76.65-17.966 146.115-53.893 208.393-35.333 62.877-84.439 111.981-147.313 147.312-62.28 35.93-131.743 53.895-208.394 53.895-76.051 0-145.516-17.965-208.393-53.895-62.278-35.331-111.382-84.435-147.312-147.312-35.93-62.279-53.895-131.743-53.895-208.393 0-76.052 17.965-145.516 53.895-208.394 35.93-62.275 85.034-111.38 147.312-147.313 62.877-35.927 132.342-53.893 208.393-53.893zM512-64c-92.22 0-177.852 22.753-256.898 68.265-78.447 46.111-140.725 108.39-186.835 186.839-45.511 79.043-68.266 164.675-68.266 256.896 0 92.819 22.756 178.451 68.266 256.898 46.11 78.447 108.388 140.426 186.835 185.937 79.046 46.11 164.678 69.165 256.898 69.165 92.82 0 178.452-23.055 256.896-69.165 78.449-45.511 140.426-107.789 185.938-186.835 46.111-78.447 69.166-163.78 69.166-256 0-92.221-23.055-177.853-69.166-256.896-45.512-78.449-107.786-140.728-186.834-186.839-78.449-45.512-163.779-68.265-256-68.265zM460.8 294.4c0-13.773-5.090-25.748-15.27-35.932-9.581-10.179-21.558-15.268-35.93-15.268-13.773 0-25.75 5.089-35.93 15.268-10.18 10.184-15.27 22.159-15.27 35.932v307.2c0 14.372 5.090 26.349 15.27 35.93 10.18 10.181 22.156 15.27 35.93 15.27 14.372 0 26.349-5.090 35.93-15.27 10.18-9.581 15.27-21.558 15.27-35.93v-307.2zM665.6 294.4c0-13.773-5.089-25.748-15.268-35.932-9.585-10.179-21.56-15.268-35.932-15.268-13.773 0-25.748 5.089-35.932 15.268-10.179 10.184-15.268 22.159-15.268 35.932v307.2c0 14.372 5.089 26.349 15.268 35.93 10.184 10.181 22.159 15.27 35.932 15.27 14.372 0 26.348-5.090 35.932-15.27 10.179-9.581 15.268-21.558 15.268-35.93v-307.2z" />
<glyph unicode="&#xe92c;" glyph-name="cancel" d="M512 38.4c76.652 0 146.115 17.966 208.394 53.893 62.874 35.932 111.98 85.038 147.313 147.313 35.927 62.879 53.893 132.342 53.893 208.394 0 76.65-17.966 146.115-53.893 208.393-35.333 62.877-84.439 111.981-147.313 147.312-62.28 35.93-131.743 53.895-208.394 53.895-76.051 0-145.516-17.965-208.393-53.895-62.278-35.331-111.382-84.435-147.312-147.312-35.93-62.279-53.895-131.743-53.895-208.393 0-76.052 17.965-145.516 53.895-208.394 35.93-62.275 85.034-111.38 147.312-147.313 62.877-35.927 132.342-53.893 208.393-53.893zM512-64c-92.22 0-177.852 22.753-256.898 68.265-78.447 46.111-140.725 108.39-186.835 186.839-45.511 79.043-68.266 164.675-68.266 256.896 0 92.819 22.756 178.451 68.266 256.898 46.11 78.447 108.388 140.426 186.835 185.937 79.046 46.11 164.678 69.165 256.898 69.165 92.82 0 178.452-23.055 256.896-69.165 78.449-45.511 140.426-107.789 185.938-186.835 46.111-78.447 69.166-163.78 69.166-256 0-92.221-23.055-177.853-69.166-256.896-45.512-78.449-107.786-140.728-186.834-186.839-78.449-45.512-163.779-68.265-256-68.265zM322.47 565.67c-10.18 8.982-15.27 20.959-15.27 35.93 0 14.372 5.090 26.349 15.27 35.93 10.18 10.181 22.156 15.27 35.93 15.27 14.971 0 26.948-5.090 35.93-15.27l307.203-307.197c10.179-8.986 15.268-20.961 15.268-35.932 0-13.773-5.089-25.748-15.268-35.932-9.585-10.179-21.56-15.268-35.932-15.268s-26.348 5.089-35.932 15.268l-307.197 307.203zM629.668 637.53c8.986 10.181 20.961 15.27 35.932 15.27 14.372 0 26.348-5.090 35.932-15.27 10.179-9.581 15.268-21.558 15.268-35.93s-5.089-26.349-15.268-35.93l-307.203-307.203c-8.982-10.179-20.959-15.268-35.93-15.268-13.773 0-25.75 5.089-35.93 15.268-10.18 10.184-15.27 22.159-15.27 35.932 0 14.971 5.090 26.947 15.27 35.932l307.197 307.197z" />
<glyph unicode="&#xe92d;" glyph-name="add_circle" d="M512 38.4c76.652 0 146.115 17.966 208.394 53.893 62.874 35.932 111.98 85.038 147.313 147.313 35.927 62.879 53.893 132.342 53.893 208.394 0 76.65-17.966 146.115-53.893 208.393-35.333 62.877-84.439 111.981-147.313 147.312-62.28 35.93-131.743 53.895-208.394 53.895-76.051 0-145.516-17.965-208.393-53.895-62.278-35.331-111.382-84.435-147.312-147.312-35.93-62.279-53.895-131.743-53.895-208.393 0-76.052 17.965-145.516 53.895-208.394 35.93-62.275 85.034-111.38 147.312-147.313 62.877-35.927 132.342-53.893 208.393-53.893zM512-64c-92.22 0-177.852 22.753-256.898 68.265-78.447 46.111-140.725 108.39-186.835 186.839-45.511 79.043-68.266 164.675-68.266 256.896 0 92.819 22.756 178.451 68.266 256.898 46.11 78.447 108.388 140.426 186.835 185.937 79.046 46.11 164.678 69.165 256.898 69.165 92.82 0 178.452-23.055 256.896-69.165 78.449-45.511 140.426-107.789 185.938-186.835 46.111-78.447 69.166-163.78 69.166-256 0-92.221-23.055-177.853-69.166-256.896-45.512-78.449-107.786-140.728-186.834-186.839-78.449-45.512-163.779-68.265-256-68.265zM716.8 499.2c14.372 0 26.348-5.090 35.932-15.27 10.179-9.581 15.268-21.558 15.268-35.93 0-13.773-5.089-25.748-15.268-35.932-9.585-10.179-21.56-15.268-35.932-15.268h-256v256c0 14.372 5.090 26.349 15.27 35.93 10.18 10.18 22.156 15.27 35.93 15.27 14.372 0 26.348-5.090 35.932-15.27 10.179-9.582 15.268-21.558 15.268-35.93v-153.6h153.6zM307.2 396.8c-13.773 0-25.75 5.089-35.93 15.268-10.18 10.184-15.27 22.159-15.27 35.932 0 14.372 5.090 26.349 15.27 35.93 10.18 10.181 22.156 15.27 35.93 15.27h256v-256c0-13.773-5.089-25.748-15.268-35.932-9.585-10.179-21.56-15.268-35.932-15.268-13.773 0-25.75 5.089-35.93 15.268-10.18 10.184-15.27 22.159-15.27 35.932v153.6h-153.6z" />
<glyph unicode="&#xe92e;" glyph-name="remove_circle" d="M512 38.4c76.652 0 146.115 17.966 208.394 53.893 62.874 35.932 111.98 85.038 147.313 147.313 35.927 62.879 53.893 132.342 53.893 208.394 0 76.65-17.966 146.115-53.893 208.393-35.333 62.877-84.439 111.981-147.313 147.312-62.28 35.93-131.743 53.895-208.394 53.895-76.051 0-145.516-17.965-208.393-53.895-62.278-35.331-111.382-84.435-147.312-147.312-35.93-62.279-53.895-131.743-53.895-208.393 0-76.052 17.965-145.516 53.895-208.394 35.93-62.275 85.034-111.38 147.312-147.313 62.877-35.927 132.342-53.893 208.393-53.893zM512-64c-92.22 0-177.852 22.753-256.898 68.265-78.447 46.111-140.725 108.39-186.835 186.839-45.511 79.043-68.266 164.675-68.266 256.896 0 92.819 22.756 178.451 68.266 256.898 46.11 78.447 108.388 140.426 186.835 185.937 79.046 46.11 164.678 69.165 256.898 69.165 92.82 0 178.452-23.055 256.896-69.165 78.449-45.511 140.426-107.789 185.938-186.835 46.111-78.447 69.166-163.78 69.166-256 0-92.221-23.055-177.853-69.166-256.896-45.512-78.449-107.786-140.728-186.834-186.839-78.449-45.512-163.779-68.265-256-68.265zM307.2 396.8c-13.773 0-25.75 5.089-35.93 15.268-10.18 10.184-15.27 22.159-15.27 35.932 0 14.372 5.090 26.349 15.27 35.93 10.18 10.181 22.156 15.27 35.93 15.27h409.6c14.372 0 26.348-5.090 35.932-15.27 10.179-9.581 15.268-21.558 15.268-35.93 0-13.773-5.089-25.748-15.268-35.932-9.585-10.179-21.56-15.268-35.932-15.268h-409.6z" />
<glyph unicode="&#xe92f;" glyph-name="pending" d="M512 38.4c76.652 0 146.115 17.966 208.394 53.893 62.874 35.932 111.98 85.038 147.313 147.313 35.927 62.879 53.893 132.342 53.893 208.394 0 76.65-17.966 146.115-53.893 208.393-35.333 62.877-84.439 111.981-147.313 147.312-62.28 35.93-131.743 53.895-208.394 53.895-76.051 0-145.516-17.965-208.393-53.895-62.278-35.331-111.382-84.435-147.312-147.312-35.93-62.279-53.895-131.743-53.895-208.393 0-76.052 17.965-145.516 53.895-208.394 35.93-62.275 85.034-111.38 147.312-147.313 62.877-35.927 132.342-53.893 208.393-53.893zM512-64c-92.22 0-177.852 22.753-256.898 68.265-78.447 46.111-140.725 108.39-186.835 186.839-45.511 79.043-68.266 164.675-68.266 256.896 0 92.819 22.756 178.451 68.266 256.898 46.11 78.447 108.388 140.426 186.835 185.937 79.046 46.11 164.678 69.165 256.898 69.165 92.82 0 178.452-23.055 256.896-69.165 78.449-45.511 140.426-107.789 185.938-186.835 46.111-78.447 69.166-163.78 69.166-256 0-92.221-23.055-177.853-69.166-256.896-45.512-78.449-107.786-140.728-186.834-186.839-78.449-45.512-163.779-68.265-256-68.265zM307.2 516.266c18.564 0 34.433-6.886 47.607-20.659 13.773-13.174 20.66-29.044 20.66-47.607 0-18.565-6.886-34.734-20.66-48.507-13.174-13.174-29.043-19.758-47.607-19.758s-34.732 6.584-48.505 19.758c-13.174 13.773-19.761 29.942-19.761 48.507s6.587 34.433 19.761 47.607c13.773 13.773 29.942 20.659 48.505 20.659zM512 516.266c18.565 0 34.432-6.886 47.606-20.659 13.773-13.174 20.659-29.044 20.659-47.607 0-18.565-6.886-34.734-20.659-48.507-13.174-13.174-29.041-19.758-47.606-19.758s-34.732 6.584-48.505 19.758c-13.174 13.773-19.761 29.942-19.761 48.507s6.587 34.433 19.761 47.607c13.773 13.773 29.942 20.659 48.505 20.659zM716.8 516.266c18.565 0 34.432-6.886 47.606-20.659 13.773-13.174 20.659-29.044 20.659-47.607 0-18.565-6.886-34.734-20.659-48.507-13.174-13.174-29.041-19.758-47.606-19.758s-34.734 6.584-48.507 19.758c-13.174 13.773-19.758 29.942-19.758 48.507s6.584 34.433 19.758 47.607c13.773 13.773 29.942 20.659 48.507 20.659z" />
<glyph unicode="&#xe930;" glyph-name="expand_circle_down" d="M512 38.4c76.652 0 146.115 17.966 208.394 53.893 62.874 35.932 111.98 85.038 147.313 147.313 35.927 62.879 53.893 132.342 53.893 208.394 0 76.65-17.966 146.115-53.893 208.393-35.333 62.877-84.439 111.981-147.313 147.312-62.28 35.93-131.743 53.895-208.394 53.895-76.051 0-145.516-17.965-208.393-53.895-62.278-35.331-111.382-84.435-147.312-147.312-35.93-62.279-53.895-131.743-53.895-208.393 0-76.052 17.965-145.516 53.895-208.394 35.93-62.275 85.034-111.38 147.312-147.313 62.877-35.927 132.342-53.893 208.393-53.893zM512-64c-92.22 0-177.852 22.753-256.898 68.265-78.447 46.111-140.725 108.39-186.835 186.839-45.511 79.043-68.266 164.675-68.266 256.896 0 92.819 22.756 178.451 68.266 256.898 46.11 78.447 108.388 140.426 186.835 185.937 79.046 46.11 164.678 69.165 256.898 69.165 92.82 0 178.452-23.055 256.896-69.165 78.449-45.511 140.426-107.789 185.938-186.835 46.111-78.447 69.166-163.78 69.166-256 0-92.221-23.055-177.853-69.166-256.896-45.512-78.449-107.786-140.728-186.834-186.839-78.449-45.512-163.779-68.265-256-68.265zM547.932 381.532c10.179-8.986 15.268-20.961 15.268-35.932 0-13.773-5.089-25.748-15.268-35.932-9.585-10.179-21.56-15.268-35.932-15.268s-26.349 5.089-35.93 15.268l-153.6 153.603c-10.18 8.982-15.27 20.959-15.27 35.93 0 14.372 5.090 26.349 15.27 35.93 10.18 10.18 22.156 15.27 35.93 15.27 14.971 0 26.948-5.090 35.93-15.27l153.603-153.598zM629.668 535.13c8.986 10.18 20.961 15.27 35.932 15.27 14.372 0 26.348-5.090 35.932-15.27 10.179-9.582 15.268-21.558 15.268-35.93s-5.089-26.349-15.268-35.93l-153.6-153.603c-8.986-10.179-20.961-15.268-35.932-15.268-13.773 0-25.75 5.089-35.93 15.268-10.18 10.184-15.27 22.159-15.27 35.932 0 14.971 5.090 26.947 15.27 35.932l153.597 153.598z" />
<glyph unicode="&#xe931;" glyph-name="expand_circle_up" d="M512 38.4c76.652 0 146.115 17.966 208.394 53.893 62.874 35.932 111.98 85.038 147.313 147.313 35.927 62.879 53.893 132.342 53.893 208.394 0 76.65-17.966 146.115-53.893 208.393-35.333 62.877-84.439 111.981-147.313 147.312-62.28 35.93-131.743 53.895-208.394 53.895-76.051 0-145.516-17.965-208.393-53.895-62.278-35.331-111.382-84.435-147.312-147.312-35.93-62.279-53.895-131.743-53.895-208.393 0-76.052 17.965-145.516 53.895-208.394 35.93-62.275 85.034-111.38 147.312-147.313 62.877-35.927 132.342-53.893 208.393-53.893zM512-64c-92.22 0-177.852 22.753-256.898 68.265-78.447 46.111-140.725 108.39-186.835 186.839-45.511 79.043-68.266 164.675-68.266 256.896 0 92.819 22.756 178.451 68.266 256.898 46.11 78.447 108.388 140.426 186.835 185.937 79.046 46.11 164.678 69.165 256.898 69.165 92.82 0 178.452-23.055 256.896-69.165 78.449-45.511 140.426-107.789 185.938-186.835 46.111-78.447 69.166-163.78 69.166-256 0-92.221-23.055-177.853-69.166-256.896-45.512-78.449-107.786-140.728-186.834-186.839-78.449-45.512-163.779-68.265-256-68.265zM394.33 360.868c-8.982-10.179-20.959-15.268-35.93-15.268-13.773 0-25.75 5.089-35.93 15.268-10.18 10.184-15.27 22.159-15.27 35.932 0 14.971 5.090 26.947 15.27 35.932l153.6 153.597c8.982 10.18 20.959 15.27 35.93 15.27 14.372 0 26.348-5.090 35.932-15.27 10.179-9.581 15.268-21.558 15.268-35.93s-5.089-26.349-15.268-35.93l-153.603-153.603zM476.070 514.47c-10.18 8.982-15.27 20.959-15.27 35.93 0 14.372 5.090 26.349 15.27 35.93 10.779 10.18 22.755 15.27 35.93 15.27 14.971 0 26.947-5.090 35.932-15.27l153.6-153.597c10.778-8.986 16.164-20.961 16.164-35.932 0-13.773-5.089-25.748-15.268-35.932-10.179-10.179-22.456-15.268-36.828-15.268s-26.348 5.089-35.932 15.268l-153.597 153.603z" />
<glyph unicode="&#xe932;" glyph-name="zoom_in" d="M455.111 163.556c65.206 0 123.756 14.638 175.656 43.913 51.9 29.941 92.484 70.861 121.765 122.761 29.275 51.9 43.913 110.12 43.913 174.66 0 65.206-14.638 123.758-43.913 175.657-29.281 51.899-69.865 92.486-121.765 121.762s-110.45 43.914-175.656 43.914c-64.54 0-122.76-14.638-174.659-43.914s-92.818-69.864-122.76-121.762c-29.276-51.899-43.914-110.451-43.914-175.657 0-64.54 14.638-122.761 43.914-174.66 29.942-51.9 70.861-92.82 122.76-122.761 51.899-29.275 110.119-43.913 174.659-43.913zM455.111 49.778c-82.505 0-158.69 20.292-228.553 60.882-69.864 40.585-125.089 95.812-165.676 165.678-40.588 69.86-60.881 146.046-60.881 228.551 0 83.171 20.294 159.355 60.881 228.553 40.587 69.864 95.813 125.089 165.676 165.676s146.048 60.881 228.553 60.881c83.171 0 159.357-20.294 228.551-60.881 69.865-40.587 125.093-95.813 165.678-165.676 40.59-69.864 60.882-146.048 60.882-228.553s-20.292-158.692-60.882-228.551c-40.585-69.865-95.812-125.093-165.678-165.678-69.86-40.59-146.046-60.882-228.551-60.882zM1007.036 32.814c11.31-9.984 16.964-23.29 16.964-39.925 0-15.303-5.655-28.609-16.964-39.925-10.65-11.31-23.956-16.964-39.925-16.964s-29.275 5.655-39.925 16.964l-227.556 227.556c-11.31 9.984-16.964 23.29-16.964 39.925 0 15.969 5.655 29.275 16.964 39.925 11.315 11.31 24.622 16.964 39.925 16.964 16.634 0 29.941-5.655 39.925-16.964l227.556-227.556zM625.778 561.778c15.969 0 29.275-5.656 39.925-16.967 11.31-10.646 16.964-23.954 16.964-39.922 0-15.304-5.655-28.611-16.964-39.922-10.65-11.311-23.956-16.967-39.925-16.967h-227.556v227.556c0 15.969 5.656 29.276 16.967 39.922 11.311 11.311 24.618 16.967 39.922 16.967 15.969 0 29.276-5.656 39.922-16.967 11.311-10.646 16.967-23.954 16.967-39.922v-113.778h113.778zM284.444 448c-15.304 0-28.611 5.656-39.922 16.967s-16.967 24.618-16.967 39.922c0 15.969 5.656 29.276 16.967 39.922 11.311 11.311 24.618 16.967 39.922 16.967h227.556v-227.556c0-15.303-5.656-28.609-16.967-39.925-10.646-11.31-23.953-16.964-39.922-16.964-15.304 0-28.611 5.655-39.922 16.964-11.311 11.315-16.967 24.622-16.967 39.925v113.778h-113.778z" />
<glyph unicode="&#xe933;" glyph-name="zoom_out" d="M455.111 163.556c65.206 0 123.756 14.638 175.656 43.913 51.9 29.941 92.484 70.861 121.765 122.761 29.275 51.9 43.913 110.12 43.913 174.66 0 65.206-14.638 123.758-43.913 175.657-29.281 51.899-69.865 92.486-121.765 121.762s-110.45 43.914-175.656 43.914c-64.54 0-122.76-14.638-174.659-43.914s-92.818-69.864-122.76-121.762c-29.276-51.899-43.914-110.451-43.914-175.657 0-64.54 14.638-122.761 43.914-174.66 29.942-51.9 70.861-92.82 122.76-122.761 51.899-29.275 110.119-43.913 174.659-43.913zM455.111 49.778c-82.505 0-158.69 20.292-228.553 60.882-69.864 40.585-125.089 95.812-165.676 165.678-40.588 69.86-60.881 146.046-60.881 228.551 0 83.171 20.294 159.355 60.881 228.553 40.587 69.864 95.813 125.089 165.676 165.676s146.048 60.881 228.553 60.881c83.171 0 159.357-20.294 228.551-60.881 69.865-40.587 125.093-95.813 165.678-165.676 40.59-69.864 60.882-146.048 60.882-228.553s-20.292-158.692-60.882-228.551c-40.585-69.865-95.812-125.093-165.678-165.678-69.86-40.59-146.046-60.882-228.551-60.882zM1007.036 32.814c11.31-9.984 16.964-23.29 16.964-39.925 0-15.303-5.655-28.609-16.964-39.925-10.65-11.31-23.956-16.964-39.925-16.964s-29.275 5.655-39.925 16.964l-227.556 227.556c-11.31 9.984-16.964 23.29-16.964 39.925 0 15.969 5.655 29.275 16.964 39.925 11.315 11.31 24.622 16.964 39.925 16.964 16.634 0 29.941-5.655 39.925-16.964l227.556-227.556zM284.444 448c-15.304 0-28.611 5.656-39.922 16.967s-16.967 24.618-16.967 39.922c0 15.969 5.656 29.276 16.967 39.922 11.311 11.311 24.618 16.967 39.922 16.967h341.333c15.969 0 29.275-5.656 39.925-16.967 11.31-10.646 16.964-23.954 16.964-39.922 0-15.304-5.655-28.611-16.964-39.922-10.65-11.311-23.956-16.967-39.925-16.967h-341.333z" />
<glyph unicode="&#xe934;" glyph-name="thumb_up" d="M307.2 652.8v-665.6h-102.4c-37.128 0-71.56 8.98-103.298 26.947-31.139 18.565-55.991 43.418-74.555 74.557-17.965 31.734-26.947 66.171-26.947 103.296v256c0 37.726 8.982 72.159 26.947 103.298 18.564 31.738 43.415 56.59 74.555 74.554 31.738 17.965 66.17 26.948 103.298 26.948h102.4zM204.8 550.4c-32.337 0-57.488-8.983-75.452-26.948s-26.948-43.116-26.948-75.452v-256c0-32.338 8.983-57.487 26.948-75.453s43.116-26.947 75.452-26.947v460.8zM460.8 704c0 31.738-8.383 56.29-25.151 73.656-16.767 17.965-40.72 27.546-71.86 28.744 1.198-1.198 9.582 4.192 25.151 16.168 10.18 8.383 14.971 11.977 14.372 10.779l-96.112-241.628v-502.119h422.175c30.541 0 55.992 8.684 76.349 26.051 20.961 17.367 34.135 41.016 39.526 70.958l46.71 257.799c4.188 23.354 3.589 42.816-1.797 58.386-4.792 15.569-14.372 27.247-28.744 35.032-14.372 8.383-33.536 12.575-57.487 12.575h-284.744c-16.171 0-29.944 5.689-41.322 17.066s-17.066 25.151-17.066 41.319v95.214zM563.2 608.786c0-2.994-4.49-0.898-13.476 6.288-8.381 7.784-16.466 15.869-24.248 24.252-7.188 8.983-9.283 13.474-6.287 13.474h284.744c41.318 0 77.548-10.18 108.687-30.54 31.734-19.762 54.789-47.008 69.161-81.74 14.971-34.732 18.867-72.758 11.679-114.077l-46.71-258.696c-6.584-33.536-20.659-64.072-42.214-91.622-20.961-27.546-47.012-49.403-78.147-65.572-30.541-15.57-62.879-23.352-97.014-23.352h-524.575v624.281l103.298 259.593c5.39 12.575 13.174 21.857 23.354 27.846 10.779 6.587 22.456 9.881 35.032 9.881 35.93-1.198 68.866-11.078 98.807-29.642 30.54-18.564 54.491-43.116 71.858-73.656s26.051-64.374 26.051-101.502v-95.214z" />
<glyph unicode="&#xe935;" glyph-name="thumb_down" d="M716.8 243.2v665.6h102.4c37.724 0 72.161-8.982 103.296-26.947 31.739-17.965 56.591-42.816 74.557-74.555 17.966-31.139 26.947-65.572 26.947-103.298v-256c0-37.128-8.98-71.562-26.947-103.296-17.966-31.14-42.819-55.992-74.557-74.557-31.135-17.966-65.572-26.947-103.296-26.947h-102.4zM819.2 345.6c32.338 0 57.487 8.98 75.453 26.947s26.947 43.117 26.947 75.453v256c0 32.337-8.98 57.488-26.947 75.452s-43.116 26.948-75.453 26.948v-460.8zM563.2 192c0-31.739 8.381-56.289 25.149-73.656s40.719-26.947 71.859-28.744c-1.198 1.797-9.277-3.594-24.248-16.169-10.783-8.381-15.872-11.976-15.273-10.778l96.113 241.628v502.118h-422.175c-29.942 0-55.392-8.683-76.351-26.049s-33.834-40.72-38.625-70.063l-46.709-258.695c-4.791-22.756-4.791-42.218 0-58.387 5.389-15.57 15.27-27.546 29.642-35.927 14.372-7.788 33.534-11.679 57.488-11.679h284.744c16.166 0 29.939-5.688 41.321-17.065 11.377-11.382 17.065-25.155 17.065-41.324v-95.212zM460.8 287.212c0 2.995 4.192 0.599 12.575-7.183 8.983-7.188 17.067-15.268 24.253-24.253 7.785-8.381 10.18-12.575 7.186-12.575h-284.744c-41.319 0-77.848 10.179-109.586 30.541-31.139 20.362-54.194 47.908-69.165 82.637-14.372 34.734-17.666 72.46-9.881 113.18l46.709 259.593c5.988 32.935 19.462 63.177 40.421 90.723 21.558 27.546 47.607 49.104 78.148 64.674 31.139 16.168 63.775 24.253 97.909 24.253h524.575v-624.282l-103.296-259.594c-5.391-12.575-13.179-22.154-23.357-28.744-10.179-5.985-21.555-8.98-34.135-8.98-36.526 1.198-70.062 11.080-100.603 29.64-29.942 18.565-53.594 43.121-70.96 73.656-17.366 31.14-26.049 64.973-26.049 101.504v95.212z" />
<glyph unicode="&#xe936;" glyph-name="square" d="M113.778 163.556c0-35.931 9.981-63.875 29.942-83.837s47.906-29.941 83.836-29.941h568.889c35.931 0 63.875 9.978 83.837 29.941s29.941 47.906 29.941 83.837v568.889c0 35.93-9.978 63.875-29.941 83.836s-47.906 29.942-83.837 29.942h-568.889c-35.93 0-63.875-9.981-83.836-29.942s-29.942-47.906-29.942-83.836v-568.889zM0 732.444c0 41.918 9.981 80.177 29.942 114.776 20.626 35.265 48.239 62.877 82.838 82.838 35.264 19.961 73.523 29.941 114.776 29.941h568.889c41.916 0 80.179-9.98 114.773-29.941 35.265-19.961 62.879-47.574 82.842-82.838 19.962-34.599 29.941-72.858 29.941-114.776v-568.889c0-41.25-9.978-79.514-29.941-114.773-19.962-34.6-47.576-62.214-82.842-82.842-34.594-19.962-72.858-29.941-114.773-29.941h-568.889c-41.253 0-79.511 9.978-114.776 29.941-34.599 20.628-62.212 48.242-82.838 82.842-19.961 35.26-29.942 73.523-29.942 114.773v568.889z" />
<glyph unicode="&#xe937;" glyph-name="setting" d="M488.646 857.6c-14.971 0-25.75-2.395-32.337-7.186-5.988-4.791-10.48-14.072-13.474-27.846l-1.796-8.983c-4.192-19.163-12.576-37.127-25.151-53.895-11.977-16.168-27.846-29.642-47.607-40.421-9.581-5.39-14.671-8.384-15.27-8.983-19.163-11.977-39.223-19.462-60.183-22.456s-41.020-1.497-60.183 4.491l-21.558 7.186c-8.983 2.395-16.468 1.797-22.456-1.797-5.389-2.994-11.977-10.779-19.761-23.354l-23.354-42.217c-7.186-13.174-10.48-23.654-9.881-31.438 1.198-7.785 7.186-16.468 17.965-26.050l8.084-7.186c14.971-14.372 26.050-30.84 33.235-49.403 7.784-17.965 11.078-37.726 9.881-59.284v-22.458c1.198-43.116-13.174-78.746-43.116-106.89l-17.066-17.065c-7.186-5.99-10.779-12.278-10.779-18.862 0-6.589 3.593-16.169 10.779-28.744l25.151-43.121c7.186-12.575 14.372-20.357 21.558-23.352 7.186-2.396 17.965-1.198 32.337 3.594l9.881 2.693c19.163 5.99 38.924 7.485 59.284 4.49 20.36-2.99 39.223-10.476 56.589-22.456l17.066-8.98c20.361-11.377 36.529-25.149 48.505-41.318 12.576-15.57 21.259-32.635 26.050-51.2l5.389-22.456c1.198-6.589 2.994-11.679 5.389-15.273 2.994-2.99 7.485-5.386 13.474-7.183 5.988-1.198 13.773-1.797 23.354-1.797h46.707c14.971 0 25.452 2.396 31.442 7.188 6.584 4.787 11.377 14.372 14.372 28.744l1.797 8.98c9.58 40.719 34.432 72.156 74.552 94.316 8.381 4.193 13.476 7.183 15.273 8.98 19.159 11.981 38.922 19.164 59.279 21.56 20.362 2.995 39.823 1.797 58.388-3.594l21.555-6.287c9.585-2.995 17.070-3.292 22.456-0.896 5.391 2.99 11.981 10.476 19.763 22.456l0.901 2.693 23.352 41.318c7.782 13.174 11.080 23.654 9.882 31.437-1.198 7.788-6.886 16.471-17.070 26.051l-8.084 7.188c-15.565 14.372-27.244 30.838-35.031 49.403-7.183 18.565-10.179 38.323-8.98 59.284v22.455c-1.198 43.116 13.174 78.746 43.116 106.891l17.966 17.066c6.584 5.988 9.882 12.276 9.882 18.863 0.599 6.587-2.995 16.468-10.783 29.642l-25.149 42.217c-6.584 12.576-13.773 20.061-21.555 22.456-7.188 2.994-17.966 2.096-32.338-2.695l-8.986-2.695c-18.56-5.39-38.323-6.587-59.284-3.593-20.956 2.994-41.016 10.48-60.18 22.456-3.594 2.395-8.684 5.389-15.268 8.983-20.362 10.779-36.828 24.552-49.408 41.319-11.976 16.767-20.060 34.733-24.248 53.895l-4.495 21.558c-1.193 8.383-4.787 14.072-10.778 17.066-5.386 2.994-16.169 4.491-32.338 4.491h-46.707zM535.352 960c37.13 0 68.567-9.881 94.316-29.642 26.353-19.163 42.819-43.715 49.408-73.656l4.49-21.558c1.198-6.587 2.995-11.378 5.386-14.372 2.995-2.994 8.986-6.886 17.966-11.677l6.287-4.491c6.589-2.994 11.679-5.988 15.273-8.983 7.782-4.79 13.471-7.485 17.065-8.084s8.98 0.3 16.169 2.695l8.084 2.695c34.135 10.779 67.369 9.881 99.707-2.695 32.333-12.575 57.185-34.433 74.552-65.572l23.352-41.319c17.966-30.54 25.155-62.278 21.56-95.214-3.594-32.337-16.768-58.984-39.521-79.944l-17.070-15.27c-4.787-4.79-8.084-8.983-9.882-12.575-1.193-3.593-1.495-9.881-0.896-18.863v-31.44c-0.599-5.985-0.297-10.778 0.896-14.372 1.797-3.594 5.094-7.485 9.882-11.674l8.084-7.188c25.748-24.55 41.021-53.596 45.814-87.132 5.386-32.932-0.599-64.973-17.966-96.108l-25.149-42.22c-17.367-30.541-41.021-52.398-70.963-65.572-29.343-13.174-58.988-15.273-88.929-6.287l-21.555 6.287c-6.589 2.396-11.679 3.292-15.273 2.693-3.589-0.599-9.277-2.995-17.065-7.183l-17.065-10.783-7.188-4.49c-7.782-4.188-13.174-7.782-16.169-10.778-2.391-2.995-4.188-7.485-5.386-13.476l-1.797-8.084c-7.188-35.328-24.55-63.775-52.101-85.33-26.947-21.56-58.383-32.338-94.316-32.338h-46.707c-35.331 0-66.171 9.58-92.519 28.744s-43.116 44.017-50.301 74.552l-4.491 20.664c-1.797 7.183-4.192 12.273-7.186 15.268-2.396 2.995-7.485 6.589-15.27 10.778l-23.354 14.372c-7.186 4.792-12.875 7.485-17.066 8.084-3.593 0.599-8.683-0.297-15.27-2.693l-8.983-2.693c-33.534-10.184-66.769-9.283-99.705 2.693-32.336 12.575-57.188 34.432-74.554 65.572l-23.354 42.22c-17.965 30.536-25.151 61.978-21.558 94.316 3.593 32.333 17.066 58.982 40.421 79.944l16.168 15.268c5.39 5.391 8.683 9.58 9.881 12.575 1.198 3.594 1.497 9.882 0.898 18.862v32.339c0.599 5.988 0 10.48-1.797 13.474-1.198 3.593-3.892 7.485-8.084 11.677l-8.084 7.186c-26.349 24.552-42.217 53.595-47.607 87.13-4.791 33.535 1.497 65.572 18.863 96.113l25.151 43.116c17.965 31.139 41.918 52.997 71.86 65.572 29.941 13.174 59.583 14.971 88.926 5.39l21.558-7.186c6.587-1.797 11.677-2.396 15.27-1.797 4.192 0.599 9.881 3.294 17.066 8.084 2.395 1.797 4.791 3.294 7.186 4.491 2.994 1.198 5.689 2.695 8.084 4.491l7.186 4.491c8.982 4.791 14.671 8.683 17.066 11.677 2.994 2.994 4.791 7.485 5.389 13.474l1.797 8.983c7.785 34.732 25.151 62.877 52.098 84.435s58.386 32.337 94.316 32.337h46.707zM307.2 448c0 37.128 9.282 71.261 27.846 102.4 18.564 31.738 43.415 56.589 74.554 74.554 31.738 18.564 65.871 27.846 102.4 27.846 37.125 0 71.26-9.282 102.4-27.846 31.739-17.965 56.591-42.817 74.552-74.554 18.565-31.139 27.848-65.272 27.848-102.4 0-36.531-9.283-70.661-27.848-102.4-17.961-31.14-42.813-55.992-74.552-74.552-31.14-18.565-65.275-27.848-102.4-27.848-36.529 0-70.662 9.283-102.4 27.848-31.139 18.56-55.991 43.412-74.554 74.552-18.564 31.739-27.846 65.869-27.846 102.4zM409.6 448c0-20.362 4.192-38.323 12.575-53.893s20.36-27.546 35.93-35.932c15.569-8.381 33.534-12.575 53.895-12.575 20.961 0 39.224 4.193 54.794 12.575 15.57 8.387 27.244 20.362 35.031 35.932 8.381 15.57 12.575 33.531 12.575 53.893 0 20.959-4.193 39.223-12.575 54.793-7.788 15.569-19.461 27.247-35.031 35.032-15.57 8.383-33.833 12.575-54.794 12.575-20.36 0-38.325-4.192-53.895-12.575-15.57-7.785-27.546-19.462-35.93-35.032s-12.575-33.834-12.575-54.793z" />
<glyph unicode="&#xe938;" glyph-name="edit" d="M783.268 637.53c9.585 10.181 21.56 15.27 35.932 15.27s26.348-5.090 35.932-15.27c10.179-9.581 15.268-21.558 15.268-35.93s-5.089-26.349-15.268-35.93l-572.185-573.079-211.986-52.997c-13.174-2.396-25.749-0.901-37.726 4.49-11.378 5.391-19.761 13.773-25.151 25.149-5.389 11.976-6.887 24.556-4.491 37.729l52.996 211.983 573.079 572.183c9.585 10.181 21.56 15.27 35.932 15.27s26.348-5.090 35.932-15.27c10.179-9.581 15.268-21.558 15.268-35.93s-5.089-26.349-15.268-35.93l-552.423-553.321-44.912-179.645c1.198 3.589-1.198 10.179-7.186 19.758-5.988 9.585-15.57 22.456-28.744 38.625l161.684 40.422 553.317 552.42zM855.132 565.67c-8.986-10.181-20.961-15.27-35.932-15.27-13.773 0-25.748 5.090-35.932 15.27-10.179 10.18-15.268 22.156-15.268 35.93 0 14.971 5.089 26.948 15.268 35.93l76.355 76.351c14.372 14.372 21.555 28.145 21.555 41.319 0 13.773-6.886 27.546-20.659 41.319s-27.546 20.66-41.318 20.66c-13.174 0-26.947-7.186-41.318-21.558l-76.349-76.35c-8.986-10.181-20.961-15.27-35.932-15.27-13.773 0-25.748 5.090-35.932 15.27-10.179 10.18-15.268 22.156-15.268 35.93 0 14.971 5.089 26.948 15.268 35.93l76.355 76.351c20.956 20.959 44.913 35.032 71.859 42.218 27.546 7.186 55.091 7.186 82.637 0 27.546-6.587 51.502-20.36 71.859-41.319 20.961-20.36 34.734-44.314 41.318-71.86 7.188-27.546 7.188-55.093 0-82.639-7.183-26.947-21.258-50.9-42.214-71.86l-76.349-76.35zM855.132 637.53c10.179-8.982 15.268-20.959 15.268-35.93 0-13.773-5.089-25.75-15.268-35.93-9.585-10.181-21.56-15.27-35.932-15.27s-26.348 5.090-35.932 15.27l-153.6 153.6c-10.179 9.581-15.268 21.558-15.268 35.93s5.089 26.349 15.268 35.93c10.184 10.181 22.159 15.27 35.932 15.27 14.971 0 26.947-5.090 35.932-15.27l153.6-153.6z" />
<glyph unicode="&#xe939;" glyph-name="open_in_new" d="M910.222 277.333c0 15.969 5.655 29.275 16.964 39.925 11.315 11.31 24.622 16.964 39.925 16.964 15.969 0 29.275-5.655 39.925-16.964 11.31-10.65 16.964-23.956 16.964-39.925v-113.778c0-41.25-9.978-79.514-29.941-114.773-19.962-34.6-47.576-62.214-82.842-82.842-34.594-19.962-72.858-29.941-114.773-29.941h-568.889c-41.253 0-79.511 9.978-114.776 29.941-34.599 20.628-62.212 48.242-82.838 82.842-19.961 35.26-29.942 73.523-29.942 114.773v568.889c0 41.918 9.981 80.177 29.942 114.776 20.626 35.265 48.239 62.877 82.838 82.838 35.264 19.961 73.523 29.941 114.776 29.941h113.778c15.969 0 29.276-5.656 39.922-16.967 11.311-10.646 16.967-23.953 16.967-39.922 0-15.304-5.656-28.611-16.967-39.922-10.646-11.311-23.953-16.967-39.922-16.967h-113.778c-35.93 0-63.875-9.981-83.836-29.942s-29.942-47.906-29.942-83.836v-568.889c0-35.931 9.981-63.875 29.942-83.837s47.906-29.941 83.836-29.941h568.889c35.931 0 63.875 9.978 83.837 29.941s29.941 47.906 29.941 83.837v113.778zM438.144 294.298c-9.98-11.31-23.287-16.964-39.922-16.964-15.304 0-28.611 5.655-39.922 16.964-11.311 11.315-16.967 24.622-16.967 39.925 0 16.634 5.656 29.941 16.967 39.925l568.886 568.886c10.65 11.311 23.956 16.967 39.925 16.967s29.275-5.656 39.925-16.967c11.31-10.646 16.964-23.953 16.964-39.922s-5.655-29.276-16.964-39.922l-568.892-568.892zM1024 561.778c0-15.304-5.655-28.611-16.964-39.922-10.65-11.311-23.956-16.967-39.925-16.967-15.303 0-28.609 5.656-39.925 16.967-11.31 11.311-16.964 24.618-16.964 39.922v333.349c0 3.327 4.659 0.666 13.972-7.984 9.984-7.984 18.961-16.967 26.948-26.948 8.647-9.315 11.31-13.972 7.982-13.972h-333.346c-15.303 0-28.609 5.656-39.925 16.967-11.31 11.311-16.964 24.618-16.964 39.922 0 15.969 5.655 29.276 16.964 39.922 11.315 11.311 24.622 16.967 39.925 16.967h333.346c17.966 0 33.269-6.321 45.915-18.963 12.641-12.642 18.961-27.945 18.961-45.91v-333.349z" />
<glyph unicode="&#xe93a;" glyph-name="open_in_full" d="M1024 561.778c0-15.304-5.655-28.611-16.964-39.922-10.65-11.311-23.956-16.967-39.925-16.967-15.303 0-28.609 5.656-39.925 16.967-11.31 11.311-16.964 24.618-16.964 39.922v333.349c0 3.327 4.659 0.666 13.972-7.984 9.984-7.984 18.961-16.967 26.948-26.948 8.647-9.315 11.31-13.972 7.982-13.972h-333.346c-15.303 0-28.609 5.656-39.925 16.967-11.31 11.311-16.964 24.618-16.964 39.922 0 15.969 5.655 29.276 16.964 39.922 11.315 11.311 24.622 16.967 39.925 16.967h333.346c17.966 0 33.269-6.321 45.915-18.963 12.641-12.642 18.961-27.945 18.961-45.91v-333.349zM665.702 521.856c-9.984-11.311-23.29-16.967-39.925-16.967-15.303 0-28.609 5.656-39.925 16.967-11.31 11.311-16.964 24.618-16.964 39.922 0 16.634 5.655 29.942 16.964 39.922l341.333 341.334c10.65 11.311 23.956 16.967 39.925 16.967s29.275-5.656 39.925-16.967c11.31-10.646 16.964-23.953 16.964-39.922s-5.655-29.276-16.964-39.922l-341.333-341.333zM0 334.222c0 15.969 5.656 29.275 16.967 39.925 11.311 11.31 24.619 16.964 39.922 16.964 15.969 0 29.276-5.655 39.922-16.964 11.311-10.65 16.967-23.956 16.967-39.925v-333.346c0-3.328-4.99-1.001-14.971 6.986-9.315 8.647-18.298 17.63-26.947 26.943-7.984 9.984-10.313 14.973-6.987 14.973h333.349c15.969 0 29.276-5.655 39.922-16.964 11.311-10.65 16.967-23.956 16.967-39.925 0-15.303-5.656-28.609-16.967-39.925-10.646-11.31-23.953-16.964-39.922-16.964h-333.349c-17.965 0-33.268 6.32-45.91 18.961-12.642 12.646-18.963 27.95-18.963 45.915v333.346zM358.3 374.147c10.646 11.31 23.953 16.964 39.922 16.964s29.276-5.655 39.922-16.964c11.311-10.65 16.967-23.956 16.967-39.925s-5.656-29.275-16.967-39.925l-341.333-341.333c-9.98-11.31-23.287-16.964-39.922-16.964-15.303 0-28.611 5.655-39.922 16.964-11.311 11.315-16.967 24.622-16.967 39.925 0 16.634 5.656 29.941 16.967 39.925l341.334 341.333z" />
<glyph unicode="&#xe93b;" glyph-name="close_fullscreen" d="M568.889 903.111c0 15.969 5.655 29.276 16.964 39.922 11.315 11.311 24.622 16.967 39.925 16.967 15.969 0 29.275-5.656 39.925-16.967 11.31-10.646 16.964-23.953 16.964-39.922v-333.349c0-3.327-4.989-0.998-14.973 6.987-9.313 8.65-18.295 17.632-26.943 26.947-7.987 9.981-10.314 14.971-6.986 14.971h333.346c15.969 0 29.275-5.656 39.925-16.967 11.31-10.646 16.964-23.953 16.964-39.922 0-15.304-5.655-28.611-16.964-39.922-10.65-11.311-23.956-16.967-39.925-16.967h-333.346c-17.966 0-33.269 6.321-45.915 18.963-12.641 12.642-18.961 27.946-18.961 45.91v333.349zM665.702 521.856c-9.984-11.311-23.29-16.967-39.925-16.967-15.303 0-28.609 5.656-39.925 16.967-11.31 11.311-16.964 24.618-16.964 39.922 0 16.634 5.655 29.942 16.964 39.922l341.333 341.334c10.65 11.311 23.956 16.967 39.925 16.967s29.275-5.656 39.925-16.967c11.31-10.646 16.964-23.953 16.964-39.922s-5.655-29.276-16.964-39.922l-341.333-341.333zM56.889 277.333c-15.303 0-28.611 5.655-39.922 16.964-11.311 11.315-16.967 24.622-16.967 39.925 0 15.969 5.656 29.275 16.967 39.925 11.311 11.31 24.619 16.964 39.922 16.964h333.349c17.965 0 33.268-6.32 45.91-18.961 12.642-12.646 18.963-27.95 18.963-45.915v-333.346c0-15.303-5.656-28.609-16.967-39.925-10.646-11.31-23.953-16.964-39.922-16.964-15.304 0-28.611 5.655-39.922 16.964-11.311 11.315-16.967 24.622-16.967 39.925v333.346c0 3.328 4.657 0.666 13.972-7.982 9.981-7.987 18.963-16.964 26.948-26.948 8.65-9.313 11.311-13.972 7.984-13.972h-333.349zM358.3 374.147c10.646 11.31 23.953 16.964 39.922 16.964s29.276-5.655 39.922-16.964c11.311-10.65 16.967-23.956 16.967-39.925s-5.656-29.275-16.967-39.925l-341.333-341.333c-9.98-11.31-23.287-16.964-39.922-16.964-15.303 0-28.611 5.655-39.922 16.964-11.311 11.315-16.967 24.622-16.967 39.925 0 16.634 5.656 29.941 16.967 39.925l341.334 341.333z" />
<glyph unicode="&#xe93c;" glyph-name="arrow_share" d="M739.556 391.111c-15.303 0-28.609 5.656-39.925 16.967-11.31 11.311-16.964 24.618-16.964 39.922 0 15.969 5.655 29.276 16.964 39.922 11.315 11.312 24.622 16.967 39.925 16.967h56.889c41.916 0 80.179-9.981 114.773-29.942 35.265-19.961 62.879-47.573 82.842-82.838 19.962-34.596 29.941-72.86 29.941-114.776v-113.778c0-41.25-9.978-79.514-29.941-114.773-19.962-34.6-47.576-62.214-82.842-82.842-34.594-19.962-72.858-29.941-114.773-29.941h-568.889c-41.253 0-79.511 9.978-114.776 29.941-34.599 20.628-62.212 48.242-82.838 82.842-19.961 35.26-29.942 73.523-29.942 114.773v113.778c0 41.916 9.981 80.179 29.942 114.776 20.626 35.265 48.239 62.878 82.838 82.838 35.264 19.961 73.523 29.942 114.776 29.942h56.889c15.969 0 29.276-5.655 39.922-16.967 11.311-10.646 16.967-23.953 16.967-39.922 0-15.304-5.656-28.611-16.967-39.922-10.646-11.311-23.953-16.967-39.922-16.967h-56.889c-35.93 0-63.875-9.978-83.836-29.941s-29.942-47.906-29.942-83.837v-113.778c0-35.931 9.981-63.875 29.942-83.837s47.906-29.941 83.836-29.941h568.889c35.931 0 63.875 9.978 83.837 29.941s29.941 47.906 29.941 83.837v113.778c0 35.931-9.978 63.875-29.941 83.837s-47.906 29.941-83.837 29.941h-56.889zM779.48 715.478c11.31-9.981 16.964-23.288 16.964-39.922 0-15.304-5.655-28.611-16.964-39.922-10.65-11.311-23.956-16.967-39.925-16.967s-29.275 5.656-39.925 16.967l-221.565 221.567c-3.327 3.327 1.331 5.656 13.972 6.987 13.307 1.331 26.282 1.331 38.924 0 13.307-1.331 18.298-3.66 14.971-6.987l-221.567-221.567c-9.98-11.311-23.287-16.967-39.922-16.967-15.304 0-28.611 5.656-39.922 16.967s-16.967 24.618-16.967 39.922c0 16.634 5.656 29.942 16.967 39.922l221.567 221.567c12.642 12.642 27.946 18.963 45.91 18.963 18.631 0 33.934-6.321 45.91-18.963l221.57-221.567zM568.889 220.444c0-15.303-5.655-28.609-16.967-39.925-10.646-11.31-23.953-16.964-39.922-16.964-15.304 0-28.611 5.655-39.922 16.964-11.311 11.315-16.967 24.622-16.967 39.925v682.667c0 15.969 5.656 29.276 16.967 39.922 11.311 11.311 24.618 16.967 39.922 16.967 15.969 0 29.276-5.656 39.922-16.967 11.312-10.646 16.967-23.953 16.967-39.922v-682.667z" />
<glyph unicode="&#xe93d;" glyph-name="share" d="M199.111 504.889c-19.296 0-33.601-4.657-42.916-13.972-9.315-8.65-13.972-22.955-13.972-42.916 0-19.296 4.657-33.601 13.972-42.916s23.621-13.972 42.916-13.972c19.961 0 34.266 4.657 42.916 13.972 9.315 9.316 13.972 23.621 13.972 42.916 0 19.961-4.657 34.266-13.972 42.916-8.65 9.315-22.955 13.972-42.916 13.972zM199.111 618.667c31.272 0 59.883-7.652 85.832-22.955s46.576-36.263 61.879-62.877c15.304-25.949 22.955-54.228 22.955-84.834s-7.652-59.216-22.955-85.834c-15.303-25.947-36.263-46.575-62.877-61.878-25.949-15.303-54.228-22.955-84.834-22.955s-59.218 7.652-85.832 22.955c-25.949 15.303-46.576 35.931-61.879 61.878-15.303 26.618-22.955 55.227-22.955 85.834 0 31.272 7.652 59.883 22.955 85.832s35.93 46.576 61.879 61.879c26.614 15.304 55.225 22.955 85.832 22.955zM824.889 846.222c-19.297 0-33.599-4.657-42.917-13.972-9.313-8.65-13.972-22.955-13.972-42.916 0-19.296 4.659-33.601 13.972-42.916 9.318-9.315 23.62-13.972 42.917-13.972 19.962 0 34.264 4.657 42.917 13.972 9.313 9.316 13.972 23.621 13.972 42.916 0 19.961-4.659 34.266-13.972 42.916-8.653 9.315-22.955 13.972-42.917 13.972zM824.889 960c31.272 0 59.881-7.652 85.834-22.955 25.947-15.303 46.575-36.263 61.878-62.877 15.303-25.949 22.955-54.228 22.955-84.834s-7.652-59.218-22.955-85.832c-15.303-25.949-36.261-46.576-62.879-61.879-25.947-15.304-54.226-22.955-84.833-22.955s-59.216 7.652-85.834 22.955c-25.947 15.303-46.575 35.93-61.878 61.879-15.303 26.614-22.955 55.225-22.955 85.832 0 31.272 7.652 59.883 22.955 85.832s35.931 46.576 61.878 61.879c26.618 15.303 55.228 22.955 85.834 22.955zM824.889 163.556c-19.297 0-33.599-4.659-42.917-13.972-9.313-8.653-13.972-22.955-13.972-42.917 0-19.297 4.659-33.599 13.972-42.917 9.318-9.313 23.62-13.972 42.917-13.972 19.962 0 34.264 4.659 42.917 13.972 9.313 9.318 13.972 23.62 13.972 42.917 0 19.962-4.659 34.264-13.972 42.917-8.653 9.313-22.955 13.972-42.917 13.972zM824.889 277.333c31.272 0 59.881-7.652 85.834-22.955 25.947-15.303 46.575-36.261 61.878-62.879 15.303-25.947 22.955-54.226 22.955-84.833s-7.652-59.216-22.955-85.834c-15.303-25.947-36.261-46.575-62.879-61.878-25.947-15.303-54.226-22.955-84.833-22.955s-59.216 7.652-85.834 22.955c-25.947 15.303-46.575 35.931-61.878 61.878-15.303 26.618-22.955 55.228-22.955 85.834 0 31.272 7.652 59.881 22.955 85.834 15.303 25.947 35.931 46.575 61.878 61.878 26.618 15.303 55.228 22.955 85.834 22.955zM698.135 111.656l-426.166 231.549 53.895 99.805 426.168-231.548-53.897-99.806zM271.969 552.796l426.166 231.547 53.897-99.805-426.168-231.547-53.895 99.805z" />
<glyph unicode="&#xe93e;" glyph-name="content_copy" d="M102.4 345.6c0-32.338 8.983-57.487 26.948-75.453s43.116-26.947 75.452-26.947h409.6c32.338 0 57.487 8.98 75.453 26.947s26.947 43.116 26.947 75.453v409.6c0 32.337-8.98 57.488-26.947 75.452s-43.116 26.948-75.453 26.948h-409.6c-32.337 0-57.488-8.983-75.452-26.948s-26.948-43.116-26.948-75.452v-409.6zM0 755.2c0 37.726 8.982 72.159 26.947 103.298 18.564 31.738 43.415 56.59 74.555 74.555 31.738 17.965 66.17 26.947 103.298 26.947h409.6c37.724 0 72.161-8.982 103.296-26.947 31.739-17.965 56.591-42.816 74.557-74.555 17.966-31.139 26.947-65.572 26.947-103.298v-409.6c0-37.125-8.98-71.562-26.947-103.296-17.966-31.14-42.819-55.992-74.557-74.557-31.135-17.966-65.572-26.947-103.296-26.947h-409.6c-37.128 0-71.56 8.98-103.298 26.947-31.139 18.565-55.991 43.418-74.555 74.557-17.965 31.734-26.947 66.171-26.947 103.296v409.6zM768 598.905c-13.773 0-25.748 5.090-35.932 15.27-10.179 10.181-15.268 22.157-15.268 35.93 0 14.372 5.089 26.349 15.268 35.93 10.184 10.18 22.159 15.27 35.932 15.27h51.2c37.724 0 72.161-8.983 103.296-26.948 31.739-17.965 56.591-42.817 74.557-74.554 17.966-31.139 26.947-65.572 26.947-103.298v-355.705c0-37.125-8.98-71.562-26.947-103.296-17.966-31.14-42.819-55.992-74.557-74.557-31.135-17.966-65.572-26.947-103.296-26.947h-355.705c-37.127 0-71.56 8.98-103.298 26.947-31.139 18.565-55.991 43.418-74.554 74.557-17.965 31.734-26.948 66.171-26.948 103.296v51.2c0 14.372 5.090 26.348 15.27 35.932 10.18 10.179 22.157 15.268 35.93 15.268 14.372 0 26.349-5.089 35.93-15.268 10.18-9.585 15.27-21.56 15.27-35.932v-51.2c0-32.338 8.983-57.487 26.948-75.453s43.116-26.947 75.452-26.947h355.705c32.338 0 57.487 8.98 75.453 26.947s26.947 43.116 26.947 75.453v355.705c0 32.337-8.98 57.488-26.947 75.452s-43.116 26.948-75.453 26.948h-51.2z" />
<glyph unicode="&#xe93f;" glyph-name="send" d="M638.754 59.756c3.988-3.988 8.317-5.655 12.971-4.989 4.659 1.331 7.652 4.989 8.983 10.98l213.584 725.583c1.997 5.323 2.332 9.648 1.001 12.975-0.666 3.992-2.998 6.321-6.986 6.986-3.328 1.331-7.652 0.998-12.976-0.998l-725.584-213.583c-5.988-1.331-9.648-4.325-10.978-8.983-0.666-3.992 0.998-8.317 4.99-12.975l514.996-514.996zM43.914 494.908c-23.288 23.288-36.595 49.57-39.922 78.846-2.661 29.276 4.325 56.223 20.959 80.842s40.92 41.918 72.858 51.899l725.584 213.583c33.269 9.981 64.205 8.317 92.82-4.99 29.275-12.642 50.233-33.601 62.874-62.877 13.306-28.611 14.973-59.55 4.989-92.819l-213.578-724.587c-9.318-31.937-26.283-56.553-50.904-73.853-24.616-16.634-51.9-23.62-81.84-20.958-29.275 3.328-55.558 16.634-78.845 39.919l-514.994 514.996zM528.967 544.811c10.646 11.311 23.953 16.967 39.922 16.967s29.275-5.656 39.925-16.967c11.31-10.646 16.964-23.954 16.964-39.922s-5.655-29.276-16.964-39.922l-227.558-227.558c-9.98-11.31-23.287-16.964-39.922-16.964-15.304 0-28.611 5.655-39.922 16.964-11.311 11.315-16.967 24.622-16.967 39.925 0 16.634 5.656 29.941 16.967 39.925l227.556 227.553z" />
</font>
</defs>
</svg>
